<svg width="61" height="60" viewBox="0 0 61 60" fill="none" xmlns="http://www.w3.org/2000/svg">
    <rect x="0.5" width="60" height="60" rx="8" fill="#F1AA34"/>
    <path d="M35.5 30L29.4226 36.0774C29.0972 36.4028 28.5695 36.4028 28.2441 36.0774L25.5 33.3333" stroke="white" stroke-width="2" stroke-linecap="round"/>
    <path d="M15.5 25H45.5" stroke="white" stroke-width="2" stroke-linecap="round"/>
    <path d="M20.5 18.3333V17.5C20.5 16.1193 21.6193 15 23 15C24.3807 15 25.5 16.1193 25.5 17.5V18.3333M35.5 18.3333V17.5C35.5 16.1193 36.6193 15 38 15C39.3807 15 40.5 16.1193 40.5 17.5V18.3333M20.8333 45H40.1667C42.0335 45 42.9669 45 43.68 44.6367C44.3072 44.3171 44.8171 43.8072 45.1367 43.18C45.5 42.4669 45.5 41.5335 45.5 39.6667V23.6667C45.5 21.7998 45.5 20.8664 45.1367 20.1534C44.8171 19.5262 44.3072 19.0162 43.68 18.6966C42.9669 18.3333 42.0335 18.3333 40.1667 18.3333H20.8333C18.9665 18.3333 18.0331 18.3333 17.32 18.6966C16.6928 19.0162 16.1829 19.5262 15.8633 20.1534C15.5 20.8664 15.5 21.7998 15.5 23.6667V39.6667C15.5 41.5335 15.5 42.4669 15.8633 43.18C16.1829 43.8072 16.6928 44.3171 17.32 44.6367C18.0331 45 18.9665 45 20.8333 45Z" stroke="white" stroke-width="2" stroke-linecap="round"/>
</svg>