<svg width="71" height="70" viewBox="0 0 71 70" fill="none" xmlns="http://www.w3.org/2000/svg">
<path d="M42.6752 41.0671L47.5851 32.5802C47.9007 32.0541 47.7604 31.3878 47.3045 31.002L42.1141 26.9339C42.2193 26.1623 42.2895 25.3557 42.2895 24.5491C42.2895 23.7425 42.2193 22.9359 42.1141 22.1293L47.3045 18.0611C47.7604 17.6754 47.9007 17.009 47.5851 16.483L42.6752 7.99599C42.3596 7.46994 41.7283 7.25952 41.1672 7.46994L35.065 9.92485C33.8025 8.94289 32.4348 8.13627 30.9267 7.50501L30.0149 1.01703C29.9561 0.733394 29.8025 0.478202 29.5794 0.293381C29.3564 0.10856 29.0771 0.00510153 28.7875 0H18.9678C18.3716 0 17.8456 0.455912 17.7404 1.0521L16.8285 7.54008C15.3556 8.17134 13.9528 8.97796 12.6903 9.95992L6.58806 7.50501C6.02694 7.29459 5.39568 7.50501 5.08005 8.03106L0.170225 16.518C-0.145406 17.0441 -0.00512502 17.7104 0.450787 18.0962L5.64117 22.1643C5.53596 22.9359 5.46582 23.7425 5.46582 24.5491C5.46582 25.3557 5.53596 26.1623 5.64117 26.9689L0.450787 31.0371C-0.00512502 31.4228 -0.145406 32.0892 0.170225 32.6152L5.08005 41.1022C5.39568 41.6283 6.02694 41.8387 6.58806 41.6283L12.6903 39.1734C13.9528 40.1553 15.3205 40.9619 16.8285 41.5932L17.7404 48.0812C17.8456 48.6423 18.3716 49.0982 18.9678 49.0982H28.7875C29.3837 49.0982 29.9097 48.6423 30.0149 48.0461L30.9267 41.5581C32.3997 40.9269 33.8025 40.1202 35.065 39.1383L41.1672 41.5932C41.7283 41.8036 42.3596 41.5932 42.6752 41.0671ZM23.8776 31.5631C20.0199 31.5631 16.8636 28.4068 16.8636 24.5491C16.8636 20.6914 20.0199 17.5351 23.8776 17.5351C27.7354 17.5351 30.8917 20.6914 30.8917 24.5491C30.8917 28.4068 27.7354 31.5631 23.8776 31.5631ZM69.8546 58.4619L66.4879 55.8667C66.558 55.3758 66.6281 54.8497 66.6281 54.3237C66.6281 53.7976 66.5931 53.2715 66.4879 52.7806L69.8195 50.1854C70.1001 49.9399 70.2053 49.519 69.9949 49.1683L66.8386 43.7325C66.6632 43.3818 66.2424 43.2766 65.8566 43.3818L61.9638 44.9599C61.1572 44.3287 60.2804 43.8026 59.2985 43.4168L58.7023 39.2786C58.6884 39.0911 58.6054 38.9155 58.4693 38.7859C58.3332 38.6563 58.1537 38.5819 57.9658 38.5772H51.6883C51.3025 38.5772 50.9518 38.8577 50.9167 39.2435L50.3205 43.3818C49.3736 43.8026 48.4618 44.2936 47.6552 44.9249L43.7624 43.3467C43.5837 43.2795 43.387 43.2778 43.2071 43.342C43.0273 43.4063 42.8761 43.5322 42.7804 43.6974L39.6241 49.1333C39.4488 49.484 39.4839 49.9048 39.7995 50.1503L43.1311 52.7455C42.9865 53.7691 42.9865 54.808 43.1311 55.8317L39.7995 58.4269C39.5189 58.6723 39.4137 59.0932 39.6241 59.4439L42.7804 64.8798C42.9558 65.2305 43.3766 65.3357 43.7624 65.2305L47.6552 63.6523C48.4618 64.2836 49.3386 64.8096 50.3205 65.1954L50.9167 69.3337C50.9869 69.7194 51.3025 70 51.6883 70H57.9658C58.3516 70 58.7023 69.7194 58.7374 69.3337L59.3336 65.1954C60.2804 64.7746 61.1923 64.2836 61.9638 63.6523L65.8917 65.2305C66.2424 65.3707 66.6632 65.2305 66.8736 64.8798L70.0299 59.4439C70.2404 59.1283 70.1352 58.7074 69.8546 58.4619ZM54.8095 59.023C53.5534 59.0226 52.3489 58.5231 51.461 57.6346C50.5731 56.7461 50.0746 55.5412 50.075 54.2851C50.0755 53.029 50.5749 51.8245 51.4635 50.9366C52.352 50.0487 53.5569 49.5501 54.813 49.5506C56.0691 49.5511 57.2736 50.0505 58.1615 50.9391C59.0494 51.8276 59.548 53.0325 59.5475 54.2886C59.547 55.5447 59.0476 56.7492 58.159 57.6371C57.2705 58.525 56.0656 59.0235 54.8095 59.023Z" fill="#f1aa34"/>
</svg>
