<svg width="78" height="70" viewBox="0 0 78 70" fill="none" xmlns="http://www.w3.org/2000/svg">
<path d="M42.7778 70L50.5556 66.1111L58.3333 70V42.7778H42.7778M58.3333 23.3333V15.5556L50.5556 19.4444L42.7778 15.5556V23.3333L35 27.2222L42.7778 31.1111V38.8889L50.5556 35L58.3333 38.8889V31.1111L66.1111 27.2222M70 0H7.77778C5.71498 0 3.73667 0.819442 2.27806 2.27806C0.819442 3.73667 0 5.71498 0 7.77778V46.6667C0 48.7295 0.819442 50.7078 2.27806 52.1664C3.73667 53.625 5.71498 54.4444 7.77778 54.4444H35V46.6667H7.77778V7.77778H70V46.6667H66.1111V54.4444H70C72.0628 54.4444 74.0411 53.625 75.4997 52.1664C76.9583 50.7078 77.7778 48.7295 77.7778 46.6667V7.77778C77.7778 5.71498 76.9583 3.73667 75.4997 2.27806C74.0411 0.819442 72.0628 0 70 0ZM35 19.4444H11.6667V11.6667H35M27.2222 31.1111H11.6667V23.3333H27.2222M35 42.7778H11.6667V35H35V42.7778Z" fill="#f1aa34"/>
</svg>
