<?xml version="1.0" standalone="no"?>
<!DOCTYPE svg PUBLIC "-//W3C//DTD SVG 20010904//EN"
 "http://www.w3.org/TR/2001/REC-SVG-20010904/DTD/svg10.dtd">
<svg version="1.0" xmlns="http://www.w3.org/2000/svg"
 width="1000.000000pt" height="1000.000000pt" viewBox="0 0 1000.000000 1000.000000"
 preserveAspectRatio="xMidYMid meet">
<metadata>
Created by potrace 1.14, written by Peter Selinger 2001-2017
</metadata>
<g transform="translate(0.000000,1000.000000) scale(0.100000,-0.100000)"
fill="#000000" stroke="none">
<path d="M4998 8634 c-3 -5 -17 -45 -31 -89 -26 -80 -57 -176 -242 -750 -174
-541 -305 -947 -360 -1115 -29 -91 -92 -285 -140 -432 l-86 -268 -412 0 c-227
0 -426 -4 -444 -9 -20 -6 -46 -5 -70 1 -21 5 -280 12 -588 15 -466 4 -560 3
-613 -10 -56 -13 -72 -13 -124 -1 -45 11 -122 14 -302 12 l-241 -3 580 -419
c319 -231 703 -509 854 -619 151 -109 280 -201 287 -204 7 -2 58 27 114 67
l100 71 -257 187 c-652 471 -890 644 -913 662 -25 19 -12 19 1090 19 l1115 1
78 243 c88 272 233 720 372 1152 146 452 169 523 200 623 16 50 32 92 35 92 3
0 25 -60 48 -132 24 -73 68 -209 98 -303 116 -357 165 -508 244 -752 44 -139
83 -253 86 -253 3 0 20 10 37 23 18 13 62 45 99 70 l66 47 -23 67 c-13 38 -67
203 -120 368 -53 165 -102 318 -110 340 -7 22 -50 155 -95 295 -45 140 -106
329 -135 420 -30 91 -85 261 -123 379 -38 118 -71 210 -74 205z"/>
<path d="M7160 7169 c0 -6 -6 -9 -14 -6 -8 3 -17 -1 -20 -9 -3 -8 -9 -14 -13
-13 -19 3 -34 -2 -29 -9 3 -5 -1 -9 -9 -10 -8 -1 -22 -3 -30 -4 -8 -1 -17 -9
-20 -19 -4 -11 -12 -16 -21 -12 -7 3 -14 0 -14 -5 0 -6 -9 -14 -20 -17 -11 -4
-31 -17 -44 -30 -13 -13 -26 -21 -29 -18 -3 3 -12 -4 -19 -16 -7 -12 -17 -21
-22 -21 -5 0 -18 -8 -29 -17 -15 -13 -18 -14 -12 -3 4 8 -1 6 -12 -5 -11 -11
-18 -23 -16 -28 2 -4 1 -7 -4 -6 -22 4 -44 -2 -39 -10 4 -5 0 -12 -6 -14 -8
-3 -6 -6 5 -6 10 -1 16 -5 12 -10 -3 -5 4 -16 15 -24 11 -7 18 -16 15 -19 -3
-3 1 -11 10 -18 8 -7 15 -19 15 -27 0 -8 5 -11 10 -8 6 3 10 0 10 -8 0 -8 7
-20 15 -27 9 -7 13 -15 10 -18 -2 -3 7 -16 21 -29 15 -13 23 -30 20 -38 -3 -8
-2 -14 2 -14 21 3 31 -4 43 -33 7 -18 19 -39 26 -46 7 -8 10 -18 7 -24 -4 -7
-2 -8 4 -4 12 7 60 -61 54 -77 -1 -5 1 -6 6 -3 5 3 15 -7 23 -22 8 -15 22 -34
31 -43 10 -9 15 -19 11 -23 -3 -3 -1 -6 6 -6 7 0 17 -13 22 -30 6 -16 15 -30
21 -30 6 0 7 -7 4 -16 -3 -8 -2 -12 4 -9 5 3 14 -5 21 -17 7 -13 20 -30 31
-39 10 -9 18 -20 18 -24 0 -4 9 -18 20 -32 11 -14 17 -30 13 -36 -4 -6 -1 -7
6 -3 8 5 14 0 18 -13 3 -12 9 -21 14 -21 5 0 9 -5 9 -10 0 -6 9 -20 20 -32 11
-12 20 -28 20 -35 0 -7 7 -13 15 -13 9 0 12 -6 8 -17 -4 -10 -2 -14 4 -10 6 4
14 -3 18 -16 4 -13 8 -17 12 -9 2 6 11 12 19 12 9 0 12 5 9 10 -3 6 3 10 14
10 12 0 21 4 21 9 0 5 16 18 36 30 19 12 32 25 29 31 -3 6 1 7 9 4 9 -3 16 -1
16 6 0 6 5 8 11 4 19 -11 2 43 -21 69 -41 46 -50 57 -45 57 3 0 -3 10 -14 21
-11 12 -27 36 -36 55 -8 18 -21 34 -28 37 -9 3 -8 8 3 23 14 17 13 18 -1 6
-13 -10 -19 -9 -29 3 -7 8 -9 15 -6 15 4 0 -2 10 -13 22 -11 11 -17 26 -14 31
4 6 0 8 -11 4 -9 -4 -15 -3 -11 2 3 5 -2 17 -11 25 -8 9 -12 16 -7 16 4 0 3 4
-4 8 -8 5 -9 13 -3 22 7 11 10 12 10 2 0 -7 5 -10 10 -7 6 3 10 1 10 -4 0 -6
9 -11 20 -11 11 0 20 -4 20 -10 0 -5 7 -10 16 -10 9 0 12 -5 8 -12 -4 -6 -3
-8 3 -5 5 3 22 -1 37 -9 16 -7 34 -14 41 -14 7 0 18 -7 25 -15 7 -8 16 -12 21
-9 5 3 9 0 9 -6 0 -6 5 -8 10 -5 6 3 10 1 10 -5 0 -6 5 -8 10 -5 6 3 10 1 10
-5 0 -6 5 -8 12 -4 8 5 9 2 4 -11 -5 -14 -4 -16 7 -7 10 9 18 7 33 -6 10 -9
28 -19 39 -20 11 -2 22 -8 23 -13 2 -5 10 -9 18 -9 8 0 14 -5 14 -11 0 -5 4
-8 9 -4 5 3 15 -1 23 -8 21 -20 88 -8 88 16 0 7 4 6 10 -3 8 -13 10 -12 10 3
0 15 12 22 24 15 2 -2 14 10 26 25 13 16 28 26 37 23 8 -3 11 -1 8 4 -3 6 -1
10 5 10 6 0 8 4 5 10 -3 6 1 7 9 4 11 -4 16 0 16 11 0 9 -4 13 -10 10 -5 -3
-10 -2 -10 3 0 5 -13 15 -30 22 -17 7 -27 17 -23 24 4 7 1 7 -7 -1 -11 -10
-17 -8 -32 9 -10 12 -18 18 -18 14 0 -3 -18 3 -40 14 -22 11 -40 17 -40 14 0
-4 -9 3 -19 15 -11 12 -22 22 -25 22 -23 -3 -36 0 -32 7 2 4 -15 14 -39 21
-23 7 -52 21 -64 32 -12 11 -21 15 -21 8 0 -7 -9 -2 -19 10 -11 12 -23 22 -28
22 -43 -1 -62 22 -36 44 6 5 13 19 15 30 2 11 9 26 16 34 7 7 11 20 8 27 -3 8
-2 14 2 14 13 0 12 103 -1 119 -9 12 -9 13 0 8 8 -5 8 1 -2 19 -8 15 -12 31
-9 36 3 4 0 8 -5 8 -6 0 -11 7 -11 15 0 7 -7 18 -16 23 -9 5 -15 12 -15 15 3
21 -1 27 -15 27 -8 0 -12 5 -9 10 3 6 -1 10 -9 10 -9 0 -13 7 -11 19 2 12 -2
18 -13 17 -10 0 -16 5 -14 14 2 8 1 12 -3 8 -8 -7 -86 30 -97 46 -5 7 -8 6 -8
-2 0 -7 -5 -10 -11 -7 -17 11 -109 13 -109 3 0 -5 -9 -4 -20 2 -15 8 -20 8
-20 -1z m157 -259 c24 -27 29 -39 22 -52 -7 -12 -6 -18 2 -18 7 0 5 -10 -6
-26 -10 -15 -12 -23 -4 -19 26 17 -27 -43 -63 -70 -20 -16 -35 -32 -31 -38 3
-5 -5 -4 -17 3 -15 8 -20 8 -16 1 12 -18 -22 -24 -39 -7 -9 9 -14 16 -10 16 5
0 -3 12 -32 45 -7 7 -13 18 -13 24 0 6 -4 11 -10 11 -5 0 -10 5 -10 11 0 7 -8
19 -18 28 -23 21 -22 31 5 58 16 16 24 18 33 10 10 -9 11 -9 6 0 -8 14 52 56
66 47 4 -3 8 0 8 5 0 6 20 10 48 9 40 -2 52 -8 79 -38z"/>
<path d="M2835 6760 c-176 -16 -328 -67 -452 -151 -33 -23 -53 -29 -95 -29
-192 0 -405 -57 -480 -128 -23 -21 -28 -34 -28 -76 0 -28 -7 -76 -15 -106 -8
-30 -13 -55 -12 -56 1 -1 38 -5 83 -8 l81 -7 11 38 c15 50 73 118 123 143 115
59 248 -15 235 -132 l-5 -48 478 0 478 0 7 38 c8 52 57 117 105 142 53 26 125
26 169 0 42 -26 76 -99 69 -146 l-6 -34 65 0 65 0 19 43 c13 27 20 65 20 106
0 56 -3 65 -26 84 -22 17 -25 26 -21 53 5 32 3 35 -51 67 -265 155 -561 230
-817 207z m187 -65 c12 -5 13 -17 4 -73 l-11 -67 -153 -3 c-83 -1 -221 -1
-305 0 l-152 3 62 32 c71 37 185 77 276 97 62 14 253 21 279 11z m217 -45
c128 -36 251 -82 251 -92 0 -5 -88 -8 -196 -8 l-196 0 6 38 c13 72 18 92 23
92 3 0 54 -14 112 -30z"/>
<path d="M6127 6469 c-48 -33 -87 -65 -87 -72 0 -13 10 -56 124 -532 42 -176
91 -378 107 -450 17 -71 36 -147 42 -168 l12 -37 80 56 c44 30 85 58 92 62 8
5 4 40 -17 132 -16 69 -26 127 -22 131 12 9 366 255 379 263 7 4 56 -22 115
-62 l103 -69 60 40 c33 22 75 51 92 64 l33 24 -510 339 c-281 187 -512 340
-513 340 -2 0 -43 -27 -90 -61z m366 -373 l167 -108 -75 -54 c-117 -84 -185
-127 -190 -122 -3 2 -9 25 -14 49 -5 24 -25 113 -45 197 -20 84 -36 155 -36
158 0 7 1 6 193 -120z"/>
<path d="M2065 6345 c-63 -30 -95 -73 -95 -131 0 -50 33 -88 90 -105 132 -40
251 146 145 227 -37 28 -93 31 -140 9z m86 -76 c22 -22 18 -55 -10 -76 -22
-17 -41 -16 -63 4 -24 22 -23 39 7 68 29 30 39 31 66 4z"/>
<path d="M3365 6341 c-45 -28 -67 -56 -74 -98 -9 -54 -3 -78 26 -107 36 -36
81 -42 135 -18 61 27 92 72 92 135 0 43 -4 53 -32 78 -39 35 -100 39 -147 10z
m86 -72 c14 -14 18 -27 13 -42 -14 -44 -60 -60 -88 -31 -22 22 -20 41 9 69 29
30 39 31 66 4z"/>
<path d="M5535 6057 c-38 -28 -153 -109 -255 -180 -102 -71 -187 -131 -188
-132 -3 -3 56 -93 109 -168 3 -4 42 17 86 47 45 31 85 56 90 56 4 -1 106 -142
226 -314 120 -172 239 -342 265 -378 l47 -66 85 60 c47 32 86 63 88 67 1 5
-117 178 -262 387 l-265 378 62 45 c35 25 74 53 87 62 l25 16 -59 87 c-33 47
-62 86 -65 85 -3 0 -37 -23 -76 -52z"/>
<path d="M7855 5986 c2 -14 0 -25 -3 -25 -23 4 -42 -2 -37 -11 3 -5 0 -10 -8
-10 -8 0 -20 -7 -27 -15 -10 -12 -16 -13 -27 -4 -11 9 -12 9 -8 -3 5 -13 -33
-49 -50 -48 -11 1 -33 -25 -28 -33 2 -4 1 -7 -4 -6 -21 4 -34 -2 -27 -13 4 -7
3 -8 -4 -4 -7 4 -17 2 -24 -4 -49 -41 -62 -49 -69 -44 -5 3 -9 0 -9 -5 0 -6 9
-11 20 -12 38 -1 100 -1 108 1 4 1 12 1 17 0 37 -8 142 -6 154 4 12 8 13 8 7
-2 -6 -9 -1 -12 16 -10 12 2 29 7 36 11 10 7 10 3 1 -17 -7 -14 -16 -23 -21
-20 -4 3 -11 -2 -14 -10 -3 -9 -10 -13 -15 -10 -5 3 -9 1 -9 -5 0 -6 -11 -13
-25 -17 -14 -3 -23 -10 -20 -14 3 -5 -4 -11 -15 -15 -11 -3 -20 -11 -20 -17 0
-5 -7 -8 -15 -4 -8 3 -14 2 -12 -2 2 -8 -26 -38 -57 -62 -18 -13 -19 -13 -11
0 7 12 6 13 -7 3 -8 -7 -18 -10 -22 -6 -4 4 -4 0 -1 -9 4 -11 0 -18 -14 -23
-12 -3 -21 -11 -21 -16 0 -6 -4 -8 -8 -5 -5 3 -20 -6 -35 -20 -15 -14 -27 -22
-27 -19 0 3 -12 -5 -27 -19 -15 -14 -30 -23 -34 -20 -4 2 -10 -5 -14 -15 -4
-13 -11 -18 -22 -14 -12 5 -14 3 -8 -7 5 -8 3 -11 -5 -8 -8 2 -26 -9 -42 -25
-15 -17 -28 -26 -28 -21 0 5 -5 1 -11 -9 -6 -9 -14 -15 -20 -12 -5 4 -9 2 -9
-3 0 -6 -20 -23 -45 -39 -25 -15 -45 -31 -45 -35 0 -5 -7 -8 -15 -8 -9 0 -18
-7 -21 -15 -4 -8 -10 -12 -15 -9 -5 3 -9 0 -9 -6 0 -7 -7 -10 -14 -7 -10 4
-13 1 -9 -9 5 -13 -8 -19 -30 -15 -5 1 -6 -3 -2 -9 6 -9 -8 -14 -28 -11 -5 1
-6 -3 -3 -8 6 -9 -22 -26 -36 -23 -5 1 -8 -5 -8 -14 0 -11 -6 -15 -20 -11 -10
3 -19 2 -18 -2 2 -21 -4 -30 -19 -24 -10 4 -14 2 -10 -4 6 -10 -19 -28 -35
-25 -4 1 -10 -7 -13 -18 -4 -11 -11 -18 -16 -15 -5 4 -9 1 -9 -5 0 -6 -4 -9
-9 -5 -6 3 -14 -3 -20 -12 -6 -10 -11 -14 -11 -9 0 5 -9 -1 -20 -14 -11 -13
-26 -20 -34 -17 -9 4 -13 1 -10 -6 4 -11 -22 -31 -78 -62 -10 -5 -18 -13 -18
-17 0 -5 -7 -8 -17 -8 -9 0 -13 -3 -10 -7 4 -3 -1 -11 -11 -17 -55 -33 -81
-53 -75 -59 3 -4 -1 -7 -11 -7 -9 0 -26 -9 -38 -20 -12 -10 -26 -16 -32 -13
-6 3 -8 3 -4 -2 9 -10 -19 -38 -31 -31 -5 3 -12 -1 -15 -10 -3 -9 -13 -14 -21
-11 -8 4 -12 1 -9 -6 2 -7 -10 -21 -28 -32 -18 -10 -40 -27 -49 -37 -9 -10
-19 -15 -22 -12 -3 3 -17 -4 -31 -17 -42 -40 -54 -48 -60 -42 -3 4 -6 1 -6 -6
0 -7 -4 -10 -9 -6 -5 3 -12 -4 -16 -15 -4 -11 -10 -18 -15 -15 -5 3 -20 -5
-33 -17 -26 -24 -31 -64 -10 -85 6 -7 10 -21 9 -30 -2 -10 1 -20 5 -23 5 -3
10 -15 12 -25 2 -11 7 -28 10 -37 4 -10 10 -26 14 -35 3 -10 8 -29 10 -43 2
-13 7 -27 11 -30 4 -3 8 -14 10 -25 2 -11 6 -27 9 -35 10 -25 14 -44 14 -62 0
-10 4 -18 8 -18 9 0 25 -57 22 -79 -2 -9 7 -6 28 8 22 16 31 18 32 9 0 -7 4
-3 9 10 5 12 16 22 23 22 8 0 26 11 40 24 14 13 28 21 31 18 3 -3 6 0 6 7 0 7
4 10 9 6 5 -3 12 4 16 15 4 11 10 18 15 15 4 -3 10 4 13 15 3 11 1 18 -4 14
-5 -3 -9 6 -9 20 0 14 -4 26 -8 26 -4 0 -9 12 -10 27 -1 15 -8 30 -15 35 -7 5
-8 8 -1 8 6 0 11 7 11 14 0 8 -5 14 -11 13 -6 -1 -10 8 -10 21 1 12 -2 22 -6
22 -4 0 -10 12 -13 27 -4 21 1 33 21 50 14 12 31 19 36 16 6 -3 8 -3 4 2 -8 8
18 32 35 33 5 0 17 10 26 21 10 12 22 21 26 21 6 0 30 17 83 61 6 5 12 6 12 2
0 -4 5 0 11 10 5 9 7 23 3 30 -6 9 -5 9 7 0 16 -13 40 1 91 50 10 10 23 15 28
12 5 -3 14 4 20 15 6 11 18 20 26 20 8 0 12 5 9 10 -6 9 7 14 21 8 3 -2 10 5
15 15 6 9 15 17 20 17 15 0 39 26 31 34 -3 4 2 4 12 0 14 -5 17 -4 12 4 -5 8
0 12 14 12 12 0 18 5 15 10 -3 6 0 10 7 10 7 0 26 11 41 25 15 14 27 23 27 18
0 -4 7 2 15 13 8 10 15 16 15 12 0 -5 9 1 20 12 12 12 25 18 30 15 6 -4 10 0
10 8 0 7 11 20 25 27 14 7 25 17 25 22 0 5 4 7 8 4 5 -3 24 9 43 27 19 17 36
32 39 32 15 3 80 48 80 56 0 5 7 9 15 9 8 0 15 5 15 10 0 6 7 10 16 10 9 0 12
5 8 12 -5 7 -2 9 8 6 8 -4 20 2 27 14 7 11 18 17 27 14 8 -3 13 -2 9 3 -3 5
10 18 28 30 18 11 42 28 54 38 55 47 63 52 63 45 0 -4 5 1 11 11 5 9 17 17 24
17 8 0 15 4 15 8 0 5 12 15 28 23 15 8 35 23 44 34 10 11 17 16 18 12 0 -4 6
-2 14 5 8 7 11 17 8 22 -3 5 0 6 6 2 6 -4 20 2 32 14 11 11 25 20 30 20 6 0
10 4 10 9 0 9 38 24 53 22 5 -1 6 3 2 8 -3 6 4 15 15 21 12 6 18 16 14 23 -5
9 -4 9 5 1 10 -9 20 -5 42 17 16 16 34 29 39 29 15 0 49 37 42 46 -4 4 -2 4 5
0 6 -3 15 -1 18 5 4 5 14 8 22 5 8 -3 11 -1 8 4 -3 6 -2 10 2 10 15 0 83 67
76 74 -4 4 0 4 9 1 10 -4 24 1 36 12 29 27 63 48 74 45 5 -1 7 2 3 8 -3 5 1
10 9 10 9 0 16 4 16 9 0 4 18 20 40 35 22 15 49 34 61 44 11 9 21 15 22 12 2
-5 19 7 58 43 10 9 19 15 19 12 0 -3 10 3 22 15 12 11 28 20 37 20 8 0 11 3 8
7 -4 3 1 12 11 19 14 11 -49 13 -378 14 -268 0 -399 3 -407 11 -7 7 -10 3 -8
-15z"/>
<path d="M4810 5554 c-102 -27 -192 -102 -234 -193 -29 -65 -28 -190 1 -247
57 -108 180 -161 413 -179 239 -18 289 -30 329 -81 26 -33 26 -57 1 -108 -40
-82 -132 -108 -244 -70 -27 9 -51 13 -56 8 -16 -17 -80 -176 -75 -184 10 -17
166 -60 215 -60 141 0 299 101 357 228 59 127 36 261 -61 358 -82 81 -149 100
-441 124 -167 14 -221 26 -240 53 -25 36 -19 75 18 112 40 40 92 51 173 36 31
-6 58 -10 59 -8 5 10 46 199 44 201 -8 7 -137 26 -170 25 -19 0 -59 -7 -89
-15z"/>
<path d="M7697 4806 c4 -5 -3 -7 -15 -4 -12 4 -22 2 -22 -4 0 -5 -4 -6 -10 -3
-5 3 -10 1 -10 -5 0 -7 -7 -10 -15 -6 -8 3 -21 -1 -29 -9 -7 -8 -16 -11 -20
-8 -3 4 -6 -1 -6 -11 0 -9 -4 -15 -8 -12 -11 6 -52 -30 -52 -45 0 -6 -7 -9
-14 -6 -11 4 -13 1 -9 -10 4 -11 2 -14 -5 -9 -7 4 -12 1 -12 -7 0 -7 -9 -23
-21 -36 -12 -12 -22 -33 -23 -47 0 -13 -5 -24 -10 -24 -4 0 -6 -7 -3 -15 4 -8
2 -17 -4 -21 -6 -3 -8 -12 -5 -19 2 -7 2 -16 -2 -19 -11 -12 -11 -36 1 -36 8
0 8 -3 -1 -12 -7 -7 -8 -17 -2 -28 5 -10 11 -32 12 -49 1 -17 6 -31 11 -31 4
0 5 -4 2 -10 -3 -5 -1 -10 5 -10 6 0 8 -4 5 -10 -3 -5 -1 -10 4 -10 6 0 11 -9
11 -21 0 -11 5 -17 10 -14 9 5 14 -8 8 -19 -2 -2 11 -15 27 -27 17 -13 32 -26
35 -30 3 -4 12 -9 20 -11 8 -2 21 -11 28 -20 7 -10 19 -18 27 -18 7 0 16 -6
18 -12 4 -10 6 -10 6 0 1 12 4 11 56 -15 12 -6 30 -7 43 -2 12 5 22 4 22 0 0
-11 19 -9 38 2 7 5 12 3 12 -4 0 -8 4 -8 15 1 8 7 15 10 15 6 0 -3 16 1 36 9
20 8 41 12 48 8 6 -4 5 1 -3 11 -8 9 -10 16 -5 15 16 -4 64 13 59 21 -3 4 9
13 25 20 17 7 30 15 30 19 0 8 27 44 53 72 9 11 12 19 6 19 -6 0 0 14 12 32
13 17 18 28 11 24 -13 -8 -17 6 -5 17 12 12 13 87 1 87 -9 0 -9 3 -1 11 11 11
-3 79 -20 95 -4 4 -7 14 -7 23 -1 31 -60 82 -60 52 0 -6 -18 -20 -40 -32 -22
-13 -40 -26 -40 -31 0 -4 -6 -8 -14 -8 -8 0 -21 -6 -28 -13 -7 -8 -24 -19 -36
-26 -12 -7 -20 -16 -17 -21 3 -6 0 -7 -8 -4 -8 3 -18 0 -22 -5 -3 -6 -11 -9
-16 -6 -5 3 -6 -1 -3 -9 4 -10 1 -16 -9 -16 -8 0 -18 -7 -21 -16 -3 -8 -2 -12
4 -9 6 3 10 -1 10 -9 0 -9 5 -16 10 -16 6 0 10 -7 10 -15 0 -8 5 -15 11 -15 5
0 7 -4 4 -10 -3 -5 1 -10 10 -10 10 0 14 -5 9 -12 -4 -7 3 -3 15 10 12 12 26
20 32 17 5 -4 9 1 9 9 0 9 5 16 12 16 6 0 21 9 33 20 12 11 32 22 43 25 18 3
21 1 13 -14 -5 -9 -6 -23 -2 -30 10 -16 -10 -62 -23 -54 -5 4 -6 1 -2 -5 3 -6
0 -17 -8 -25 -8 -8 -12 -17 -9 -21 4 -3 -1 -6 -10 -6 -9 0 -17 -4 -17 -9 0 -5
-24 -20 -53 -35 -56 -27 -149 -36 -162 -16 -3 6 -15 10 -26 10 -11 0 -17 4
-14 10 3 5 0 7 -8 4 -9 -3 -22 4 -30 16 -9 12 -20 19 -26 16 -6 -4 -8 2 -6 14
2 11 0 18 -4 15 -14 -8 -31 20 -34 54 -1 17 -6 31 -10 31 -11 0 -6 71 6 88 6
8 5 12 -4 12 -11 0 -11 2 1 10 8 5 11 10 5 10 -5 0 -3 6 6 13 9 7 18 17 20 22
2 6 7 9 12 8 4 -2 6 0 5 5 -2 4 5 18 15 32 9 13 17 21 17 17 0 -5 11 4 25 19
14 15 25 22 25 16 0 -6 7 -9 15 -6 8 4 12 10 9 15 -3 5 2 6 10 3 8 -3 21 -2
28 2 16 10 48 13 48 4 0 -5 16 -5 64 -1 5 1 6 4 3 8 -4 3 -2 12 4 20 9 10 8
13 -2 13 -11 0 -11 2 -1 8 16 11 24 53 14 70 -5 8 -38 13 -89 15 -50 2 -79 -1
-76 -7z"/>
<path d="M3688 4766 c-10 -10 -18 -15 -18 -11 0 4 -7 -1 -16 -9 -8 -9 -20 -14
-25 -11 -5 4 -9 -2 -9 -11 0 -10 -3 -15 -6 -11 -4 3 -12 1 -20 -6 -33 -30 -42
-35 -48 -30 -6 6 -10 -12 -7 -29 0 -5 -2 -7 -6 -7 -23 4 -25 -3 -5 -17 12 -8
22 -22 22 -30 0 -8 5 -14 10 -14 6 0 10 -10 10 -22 0 -12 3 -18 7 -15 3 4 13
-2 20 -13 8 -11 19 -17 25 -14 7 4 8 2 4 -5 -8 -12 9 -45 39 -75 9 -9 13 -16
9 -16 -4 0 3 -9 15 -19 12 -11 23 -23 23 -28 1 -11 30 -56 42 -64 5 -4 6 -12
2 -18 -5 -7 -1 -9 8 -5 9 3 16 1 16 -5 0 -21 3 -26 22 -39 10 -7 16 -18 13
-23 -4 -5 -1 -9 4 -9 6 0 11 -7 11 -16 0 -8 5 -12 10 -9 6 3 10 1 10 -5 0 -16
36 -61 43 -54 3 3 4 -6 3 -20 -2 -14 1 -23 5 -20 5 3 9 0 9 -6 0 -6 5 -8 12
-4 6 4 8 3 5 -3 -4 -5 2 -19 13 -30 10 -12 16 -24 13 -27 -4 -3 2 -6 13 -7 10
0 14 -3 7 -6 -8 -3 -4 -12 12 -27 14 -13 25 -28 25 -35 0 -6 5 -11 11 -11 5 0
7 -4 4 -10 -3 -5 -1 -10 5 -10 5 0 18 -16 27 -35 9 -19 20 -35 24 -35 4 0 16
-15 28 -32 38 -61 46 -72 62 -90 15 -18 17 -17 43 7 15 14 31 23 36 20 4 -3
11 2 14 11 3 9 13 14 21 11 9 -4 12 -1 9 8 -4 9 3 16 20 21 15 3 23 11 19 17
-4 6 0 8 11 4 9 -4 15 -3 13 1 -3 4 1 13 9 20 8 7 14 9 14 5 1 -4 10 3 20 16
11 13 20 20 20 17 0 -4 10 -1 23 6 12 7 26 11 31 10 5 -2 3 5 -4 15 -8 10 -10
15 -5 10 4 -4 19 0 32 8 13 9 23 12 23 8 0 -4 7 3 16 15 8 12 24 22 35 22 11
0 18 4 14 9 -5 9 32 27 47 23 4 -1 5 5 2 13 -4 8 -11 12 -17 8 -6 -4 -7 -1 -2
7 5 8 2 18 -6 24 -21 17 -41 55 -34 66 4 6 -1 7 -11 3 -12 -4 -15 -3 -10 5 4
7 1 12 -8 12 -9 0 -13 6 -10 14 5 12 -13 25 -43 32 -7 1 -13 -4 -13 -12 0 -9
-5 -12 -10 -9 -6 4 -26 -9 -44 -29 -19 -19 -36 -33 -39 -30 -3 3 -20 -8 -38
-25 -18 -18 -39 -29 -46 -26 -9 3 -11 0 -7 -7 5 -7 2 -9 -9 -5 -11 4 -14 2
-10 -9 9 -24 -37 -17 -62 10 -17 18 -20 27 -11 36 8 8 8 11 -2 8 -8 -2 -19 6
-25 16 -18 30 -30 46 -49 64 -10 9 -18 22 -18 29 0 7 -4 13 -9 13 -5 0 -14 14
-21 30 -7 17 -16 30 -20 30 -3 0 -13 12 -21 27 -14 28 -32 53 -56 78 -7 8 -13
17 -13 20 0 4 -14 25 -31 46 -17 21 -27 39 -23 39 5 0 -2 7 -14 16 -12 8 -19
20 -16 26 5 7 0 9 -15 5 -18 -4 -20 -3 -10 9 9 11 7 18 -10 33 -11 10 -21 21
-21 25 0 4 -9 16 -20 28 -11 12 -20 28 -20 35 0 8 -4 11 -10 8 -5 -3 -10 -2
-10 4 0 5 6 12 13 14 6 3 2 6 -10 6 -13 1 -22 7 -20 14 1 6 -4 11 -12 9 -9 -2
-12 4 -8 18 3 13 0 20 -8 20 -8 0 -15 8 -17 17 -3 15 -4 15 -20 -1z"/>
<path d="M7145 4434 c-10 -12 -22 -22 -25 -21 -3 1 -16 -6 -30 -17 -16 -12
-21 -20 -12 -23 6 -3 12 -10 12 -18 0 -7 7 -18 15 -25 8 -7 12 -17 8 -23 -3
-6 -1 -7 5 -3 7 4 12 1 12 -9 0 -9 5 -13 10 -10 6 3 10 -3 10 -15 0 -13 4 -19
11 -14 7 4 10 1 7 -6 -2 -7 5 -23 16 -36 36 -38 46 -53 46 -64 0 -6 5 -8 12
-4 6 4 8 3 5 -3 -4 -6 5 -23 18 -39 14 -16 25 -35 25 -41 0 -7 5 -13 10 -13 6
0 10 -5 10 -11 0 -7 -10 -5 -25 5 -14 9 -25 14 -25 11 0 -3 -13 1 -29 9 -16 9
-31 12 -35 9 -3 -4 -6 -1 -6 5 0 7 -11 12 -24 12 -14 0 -28 5 -31 10 -3 6 -15
10 -26 10 -14 0 -18 4 -13 13 5 7 0 6 -11 -3 -11 -9 -16 -10 -11 -3 5 9 -7 16
-38 25 -25 6 -42 16 -40 20 3 5 2 7 -3 6 -13 -4 -103 26 -103 34 0 4 -6 7 -12
5 -7 -1 -12 3 -11 9 1 7 -6 10 -17 7 -11 -3 -20 -9 -20 -13 0 -4 -11 -11 -25
-14 -14 -4 -23 -11 -20 -16 3 -6 -3 -10 -14 -10 -28 0 -29 -44 -2 -62 11 -8
21 -20 23 -28 2 -8 11 -21 21 -28 9 -7 17 -20 17 -28 0 -8 5 -14 10 -14 6 0
10 -7 10 -15 0 -8 5 -15 11 -15 6 0 8 -7 5 -16 -3 -8 -2 -13 3 -10 8 5 24 -19
18 -27 -4 -6 31 -37 42 -37 6 0 10 -3 9 -7 -1 -5 3 -18 10 -29 6 -12 8 -25 4
-29 -4 -5 -1 -5 6 -1 7 4 15 0 19 -11 4 -9 17 -27 30 -39 12 -11 19 -24 15
-28 -4 -4 1 -12 11 -17 9 -6 17 -16 17 -22 0 -7 9 -19 20 -27 23 -16 26 -36 8
-44 -9 -4 -8 -5 2 -4 24 2 51 -13 43 -24 -3 -6 9 -2 27 8 18 10 34 25 37 31 3
7 9 11 14 8 4 -3 13 3 19 14 8 16 6 23 -7 33 -10 7 -19 19 -21 27 -1 7 -9 20
-17 28 -9 8 -13 19 -9 24 3 5 1 8 -4 7 -6 -2 -10 0 -11 5 -1 8 -13 24 -43 58
-10 10 -18 24 -18 29 0 6 -4 10 -10 10 -5 0 -10 7 -10 15 0 8 -4 15 -10 15 -5
0 -10 6 -10 14 0 8 -4 16 -9 18 -5 2 -11 10 -13 18 -2 8 -12 22 -23 32 -20 18
-20 18 10 12 17 -4 33 -11 36 -17 4 -5 11 -7 17 -3 5 3 15 -1 22 -9 7 -8 21
-15 31 -15 10 0 21 -4 24 -10 3 -5 15 -10 26 -10 10 0 19 -5 19 -11 0 -5 4 -8
9 -5 5 3 22 -1 37 -9 16 -8 37 -15 47 -15 10 0 22 -10 27 -22 8 -21 9 -21 10
-3 1 20 1 20 15 1 8 -11 15 -17 15 -13 0 4 15 1 34 -7 19 -8 37 -12 40 -8 3 3
6 -3 7 -14 0 -11 3 -13 6 -6 2 6 9 9 14 6 6 -3 29 7 52 22 23 16 45 29 49 29
3 0 10 4 15 9 5 5 3 6 -4 2 -9 -5 -13 0 -13 13 0 11 -10 28 -22 38 -13 10 -24
25 -26 33 -2 8 -11 22 -20 30 -9 9 -18 22 -20 30 -2 8 -9 18 -17 22 -7 4 -16
19 -19 33 -4 14 -14 25 -23 25 -9 0 -14 3 -10 6 6 6 -30 60 -61 93 -7 7 -11
20 -8 28 3 8 2 12 -3 9 -8 -6 -49 44 -53 66 -2 7 -5 15 -8 18 -29 28 -59 74
-54 82 4 7 2 8 -4 4 -7 -4 -12 -2 -12 4 0 6 -4 9 -9 6 -5 -4 -11 -2 -13 3 -1
5 -12 -2 -23 -15z"/>
<path d="M3093 4363 c7 -7 -36 -43 -52 -43 -6 0 -11 -5 -11 -11 0 -6 -7 -9
-15 -5 -8 3 -14 2 -14 -2 1 -4 1 -14 0 -22 -1 -13 -2 -13 -11 0 -8 13 -10 12
-10 -3 0 -10 -4 -15 -10 -12 -5 3 -10 1 -10 -5 0 -7 -6 -10 -14 -7 -8 3 -13
-1 -12 -11 2 -27 26 -63 37 -57 5 4 9 3 8 -2 -3 -17 14 -53 22 -47 5 3 9 -4 9
-16 0 -12 4 -19 9 -15 5 3 12 -3 16 -14 5 -16 15 -31 55 -78 5 -7 10 -17 10
-22 0 -6 8 -15 18 -20 13 -8 14 -10 2 -11 -10 0 -7 -5 8 -16 12 -8 22 -21 22
-28 0 -8 7 -17 16 -20 8 -3 13 -10 10 -14 -3 -5 4 -15 15 -22 10 -8 19 -20 19
-28 0 -7 4 -11 9 -7 6 3 8 -4 6 -16 -2 -12 -2 -19 2 -16 9 9 45 -41 38 -53 -4
-6 -3 -10 2 -9 23 4 32 -2 26 -18 -4 -11 -3 -14 5 -9 7 4 12 1 12 -8 0 -9 9
-26 20 -38 43 -49 50 -58 43 -58 -5 0 -3 -4 2 -8 15 -11 55 -70 55 -82 0 -5 5
-10 10 -10 6 0 10 -7 10 -16 0 -8 5 -12 10 -9 6 3 10 -1 10 -9 0 -9 5 -16 11
-16 5 0 7 -4 4 -10 -3 -5 -1 -10 5 -10 6 0 14 -8 17 -17 4 -10 15 -25 25 -35
11 -9 20 -26 21 -37 0 -11 3 -18 6 -16 2 3 12 -4 21 -15 17 -20 56 -18 44 1
-3 5 2 9 10 9 8 0 20 8 25 18 6 9 11 13 11 8 0 -5 11 3 25 18 14 15 25 23 25
17 0 -5 14 3 32 19 17 16 35 27 39 24 4 -2 15 6 23 18 9 12 16 19 16 15 0 -5
7 -1 16 7 8 9 20 13 26 10 6 -4 8 -3 5 2 -3 6 -2 16 4 24 8 13 9 13 9 0 0 -10
5 -7 16 8 8 12 19 20 24 17 4 -3 11 2 14 11 4 9 9 14 13 11 3 -4 13 1 22 11 9
10 28 23 44 30 25 11 26 14 15 34 -7 12 -26 35 -42 50 -15 16 -23 28 -16 28 7
0 -2 13 -19 29 -17 16 -31 36 -31 45 0 22 -4 21 -41 -14 -18 -16 -35 -28 -37
-25 -2 2 -15 -8 -28 -22 -13 -14 -24 -22 -24 -18 0 4 -20 -9 -45 -29 -25 -21
-53 -38 -64 -39 -10 0 -17 -7 -14 -13 6 -17 -21 -12 -38 6 -21 22 -54 74 -51
82 1 4 -8 10 -20 13 -15 5 -17 9 -8 15 9 6 7 10 -9 15 -12 3 -19 10 -16 15 3
4 -2 13 -10 20 -8 7 -15 18 -15 25 0 7 -7 16 -16 19 -9 4 -14 9 -11 12 3 3 -3
15 -14 27 -42 48 -47 56 -42 61 4 3 1 6 -5 6 -7 0 -12 9 -12 21 0 11 -4 18 -8
15 -4 -2 -23 20 -42 50 -19 30 -38 54 -42 54 -5 0 -8 7 -8 15 0 8 -4 15 -10
15 -5 0 -10 6 -10 14 0 7 -7 19 -15 26 -8 7 -12 16 -9 21 3 5 -5 9 -18 9 -17
0 -19 3 -9 9 7 5 9 10 4 12 -5 2 -19 19 -32 37 -12 18 -26 30 -31 27 -4 -3 -6
4 -3 15 4 14 0 20 -12 20 -15 0 -16 2 -4 17 8 9 10 14 4 11 -10 -6 -38 16 -30
24 2 2 -8 9 -22 15 -14 7 -23 10 -20 6z"/>
<path d="M6584 4035 c-13 -13 -25 -24 -27 -23 -1 1 -11 -3 -22 -9 -18 -11 -19
-12 -3 -18 10 -4 15 -11 12 -17 -3 -5 3 -17 15 -27 11 -10 18 -21 14 -25 -3
-3 1 -6 11 -6 9 0 15 -4 12 -9 -3 -5 17 -38 45 -75 27 -36 47 -66 43 -66 -4 0
2 -8 12 -17 11 -10 33 -39 49 -65 17 -27 34 -48 38 -48 5 0 5 -4 2 -10 -3 -5
-1 -10 5 -10 7 0 9 -7 6 -17 -4 -10 -4 -14 0 -11 8 9 25 -8 43 -44 8 -15 19
-24 24 -21 6 4 8 0 4 -10 -4 -11 -1 -17 7 -17 8 0 16 -9 19 -21 6 -21 34 -22
30 -1 -2 6 3 9 11 6 8 -3 21 5 30 18 9 13 19 22 21 21 13 -7 25 -1 25 12 0 8
-4 15 -10 15 -5 0 -10 7 -10 15 0 8 -7 15 -16 15 -8 0 -12 5 -9 10 3 6 1 10
-5 10 -6 0 -9 4 -6 9 3 5 -1 12 -10 15 -8 3 -12 10 -9 16 3 6 -1 13 -9 16 -9
3 -16 14 -16 23 0 9 -9 23 -20 31 -11 8 -20 20 -20 28 0 7 -4 10 -10 7 -5 -3
-10 1 -10 11 0 9 -10 25 -22 35 -11 11 -18 19 -15 19 3 0 -5 12 -18 26 -14 15
-25 33 -25 40 0 8 -4 14 -10 14 -5 0 -10 7 -10 15 0 8 -4 15 -10 15 -5 0 -10
9 -10 21 0 11 -4 18 -9 15 -9 -6 -26 22 -23 37 1 4 -4 7 -12 7 -14 0 -32 36
-28 53 1 5 -2 6 -7 3 -5 -4 -12 -2 -16 4 -10 16 -24 12 -51 -15z"/>
<path d="M2391 3871 c-7 -5 -10 -14 -7 -20 4 -6 4 -11 -1 -10 -13 3 -47 -14
-56 -28 -4 -7 -22 -20 -40 -29 -46 -24 -58 -39 -44 -53 8 -8 8 -11 -3 -11 -10
0 -10 -4 2 -17 8 -10 14 -28 13 -40 -1 -13 2 -23 7 -23 4 0 8 -15 8 -34 0 -19
5 -38 10 -41 8 -5 7 -11 -1 -21 -10 -12 -10 -15 1 -12 10 2 14 -7 13 -29 0
-18 4 -33 9 -33 5 0 6 -4 3 -10 -3 -5 -1 -18 4 -28 7 -13 6 -23 -2 -31 -9 -10
-9 -11 3 -6 12 4 16 -2 18 -22 3 -30 9 -68 12 -68 1 0 3 -15 5 -33 2 -18 9
-40 15 -48 7 -8 10 -14 6 -14 -3 0 0 -15 8 -34 10 -25 11 -37 3 -45 -8 -8 -8
-11 1 -11 7 0 12 -9 12 -19 0 -11 5 -23 10 -26 7 -4 6 -13 -1 -27 -8 -15 -8
-19 0 -14 7 5 11 -2 11 -17 0 -13 3 -27 7 -30 3 -4 8 -19 10 -34 5 -45 8 -57
15 -69 4 -6 6 -21 3 -33 -2 -14 1 -21 11 -21 12 0 12 -4 4 -20 -7 -14 -7 -20
0 -20 5 0 10 -11 10 -23 0 -13 3 -27 8 -31 4 -4 7 -17 7 -29 1 -12 4 -28 8
-34 5 -7 6 -13 2 -13 -3 0 -1 -9 5 -20 8 -15 8 -20 -2 -20 -8 -1 -7 -4 3 -10
10 -6 15 -20 14 -35 -4 -28 10 -32 39 -10 10 8 22 12 27 10 4 -3 11 4 14 16 6
17 9 19 16 8 7 -11 9 -11 9 3 0 12 5 15 17 11 10 -4 14 -2 10 4 -6 10 19 28
35 25 4 -1 10 7 13 18 4 11 11 18 16 14 6 -3 7 4 4 18 -8 31 -10 43 -20 96 -4
23 -12 42 -18 42 -5 0 -4 7 3 15 9 10 9 15 1 15 -6 0 -10 3 -10 8 3 18 -2 33
-10 28 -4 -3 -6 6 -3 19 2 14 8 23 12 20 4 -2 18 5 31 16 13 11 34 29 45 39
17 14 25 15 34 7 6 -7 11 -7 10 -2 -4 21 0 36 9 30 5 -3 16 3 23 12 14 19 67
48 81 44 5 -1 6 2 3 7 -2 4 -1 14 5 22 7 13 9 13 9 1 0 -9 6 -7 19 7 10 12 23
22 30 22 6 0 11 5 11 11 0 5 5 7 10 4 6 -3 10 1 10 9 0 10 7 13 20 11 11 -2
18 0 15 5 -10 17 15 21 38 5 13 -8 27 -12 32 -8 4 5 5 3 2 -3 -4 -7 18 -27 53
-49 33 -21 57 -41 55 -45 -3 -5 4 -6 15 -3 12 3 20 0 20 -7 0 -15 40 -2 60 20
16 18 50 34 63 31 5 -1 6 3 2 9 -3 5 2 13 12 17 10 4 24 12 30 19 7 7 18 14
25 17 18 6 -26 48 -52 50 -10 1 -17 3 -15 5 2 3 -3 11 -11 20 -14 13 -17 13
-25 1 -7 -11 -9 -10 -9 6 0 13 -11 25 -32 34 -18 8 -38 22 -45 30 -7 9 -13 12
-13 7 0 -5 -9 1 -20 14 -11 13 -20 19 -20 15 0 -4 -8 -2 -17 6 -10 8 -30 21
-46 29 -20 10 -24 16 -15 23 9 6 5 7 -10 4 -18 -4 -22 -2 -18 9 3 8 2 13 -2
10 -9 -6 -65 28 -58 35 3 3 -4 6 -15 6 -11 1 -29 11 -39 22 -9 12 -25 21 -34
21 -10 0 -14 5 -11 10 3 6 -3 10 -15 10 -13 0 -19 4 -14 12 5 8 0 9 -14 6 -12
-4 -20 -3 -18 1 6 9 -21 32 -57 49 -15 6 -26 16 -23 20 2 4 -4 9 -16 9 -11 1
-28 11 -38 22 -9 12 -25 21 -34 21 -10 0 -14 5 -11 10 3 6 -3 10 -15 10 -13 0
-19 4 -14 12 5 8 0 9 -14 6 -12 -4 -20 -3 -17 2 4 7 -41 43 -55 44 -12 1 -39
30 -34 38 3 4 -2 5 -11 2 -9 -4 -23 3 -35 16 -11 13 -20 19 -20 15 0 -4 -8 -1
-17 7 -24 21 -55 29 -72 19z m139 -332 c0 -5 4 -8 9 -4 5 3 16 -3 23 -13 12
-18 18 -22 36 -22 4 0 19 -10 32 -22 14 -13 32 -24 39 -26 19 -4 71 -44 71
-55 0 -5 7 -4 16 3 8 8 14 9 13 4 -3 -20 2 -35 10 -29 5 3 21 -6 34 -19 14
-14 28 -22 31 -19 3 4 6 1 6 -5 0 -6 -9 -16 -20 -22 -11 -6 -18 -15 -15 -20 3
-6 0 -7 -8 -5 -7 3 -22 -3 -32 -15 -10 -11 -22 -20 -27 -20 -5 0 -18 -9 -30
-20 -12 -10 -25 -17 -29 -14 -4 2 -11 -2 -16 -9 -4 -8 -20 -22 -35 -31 -21
-14 -28 -14 -34 -4 -13 21 -13 38 -1 38 7 0 4 5 -6 11 -9 6 -15 14 -12 20 4 5
3 9 -2 9 -4 0 -9 10 -9 23 -2 29 -8 49 -18 66 -7 11 -6 12 5 6 12 -8 12 -6 0
8 -7 9 -11 26 -8 37 3 11 0 20 -6 20 -7 0 -13 10 -14 23 -2 29 -10 72 -13 72
-1 0 -3 10 -4 23 -2 12 1 22 6 22 4 0 8 -5 8 -11z"/>
<path d="M6277 3833 c-9 -2 -15 -9 -12 -13 3 -5 -6 -12 -20 -16 -14 -3 -24 -9
-21 -12 3 -3 -2 -10 -11 -17 -15 -11 -14 -15 10 -39 14 -14 22 -26 17 -26 -6
0 -2 -9 8 -19 33 -38 43 -51 35 -51 -4 0 -3 -4 2 -8 6 -4 21 -24 35 -44 14
-21 29 -38 33 -38 5 0 5 -4 2 -10 -3 -5 2 -10 12 -11 10 0 13 -3 6 -6 -8 -3
-4 -12 12 -27 14 -13 25 -28 25 -35 0 -6 5 -11 10 -11 6 0 10 -7 10 -15 0 -8
5 -15 10 -15 6 0 10 -6 10 -14 0 -7 7 -19 15 -26 9 -7 14 -15 11 -17 -2 -2 12
-20 31 -39 18 -19 31 -39 28 -44 -4 -6 2 -10 11 -10 10 0 15 -3 11 -6 -3 -4 1
-13 9 -21 8 -8 11 -19 8 -25 -3 -5 3 -4 14 3 12 7 18 17 16 21 -3 4 0 8 6 8
10 0 69 37 80 51 10 12 55 33 65 30 6 -1 7 0 3 4 -9 10 19 38 31 31 5 -3 12 1
15 10 3 8 9 13 14 10 4 -2 8 6 8 19 0 13 -4 21 -10 18 -5 -4 -7 1 -3 11 4 9 3
15 -1 12 -5 -3 -16 9 -26 25 -17 29 -19 30 -42 14 -13 -8 -24 -13 -24 -11 0 3
-12 -6 -26 -19 -15 -14 -31 -25 -36 -25 -6 0 -17 -8 -26 -18 -10 -10 -16 -16
-15 -13 2 2 -7 12 -19 22 -11 11 -18 19 -15 19 6 0 -13 27 -40 55 -7 8 -13 18
-13 24 0 6 -4 11 -8 11 -5 0 -14 12 -20 26 -7 14 -17 22 -22 19 -5 -3 -7 0 -4
8 3 8 -2 21 -10 30 -9 9 -16 20 -16 26 0 6 -4 11 -9 11 -5 0 -12 8 -15 18 -4
10 -20 34 -36 52 -16 18 -28 35 -26 38 7 6 -38 47 -48 44 -5 -2 -3 5 5 14 9
12 9 15 2 10 -7 -4 -13 -2 -13 3 0 11 -3 12 -33 4z"/>
<path d="M6062 3683 c-6 -2 -10 -9 -6 -14 3 -5 -4 -9 -16 -9 -12 0 -18 -4 -15
-10 3 -5 -3 -10 -15 -10 -12 0 -18 -4 -15 -10 3 -5 1 -10 -4 -10 -21 0 -6 -31
42 -81 9 -11 18 -22 18 -26 3 -18 26 -42 34 -35 5 4 5 2 2 -4 -4 -7 6 -26 23
-43 16 -18 29 -35 30 -39 2 -24 13 -42 26 -42 12 0 13 -4 3 -22 -11 -21 -11
-22 4 -9 15 12 17 11 17 -3 0 -9 7 -19 16 -23 8 -3 13 -11 10 -18 -3 -8 2 -16
10 -19 9 -3 12 -10 9 -16 -3 -5 1 -10 9 -10 14 0 18 -6 15 -27 0 -3 6 -10 15
-15 9 -5 16 -16 16 -23 0 -8 5 -15 10 -15 6 0 10 -4 10 -9 0 -5 14 -23 30 -41
17 -18 30 -27 30 -20 0 6 4 9 9 6 5 -3 14 1 21 9 7 8 16 12 21 9 5 -3 9 2 9
11 0 9 5 13 10 10 6 -3 10 -3 11 2 0 4 2 16 4 26 2 9 -3 17 -11 17 -8 0 -14 7
-14 15 0 8 -5 15 -11 15 -5 0 -8 4 -5 9 7 10 -29 53 -37 44 -4 -3 -4 5 -2 17
2 12 2 20 -2 17 -8 -9 -73 84 -67 95 5 8 -11 12 -30 9 -5 -1 -3 6 5 15 9 12
10 15 1 10 -8 -5 -15 1 -21 17 -6 14 -13 26 -18 28 -12 6 -53 66 -53 79 0 5
-5 10 -12 10 -6 0 -9 3 -5 6 3 3 -2 14 -11 23 -33 35 -52 61 -52 72 0 10 -25
40 -32 38 -2 0 -9 -3 -16 -6z"/>
<path d="M4990 3629 c0 -5 -4 -8 -8 -5 -5 3 -15 -4 -22 -15 -8 -10 -20 -19
-27 -19 -6 0 -17 -8 -22 -17 -6 -10 -11 -14 -11 -9 0 4 -9 -2 -21 -15 -11 -13
-17 -17 -14 -9 4 8 -4 2 -18 -13 -14 -16 -28 -27 -31 -25 -3 2 -15 -5 -26 -14
-11 -10 -25 -18 -31 -18 -6 0 -9 -7 -6 -14 4 -9 1 -13 -7 -10 -7 3 -20 -4 -30
-15 -10 -11 -23 -18 -27 -15 -5 3 -9 -2 -9 -11 0 -9 -5 -13 -10 -10 -6 3 -13
-1 -16 -9 -3 -9 -10 -14 -14 -11 -4 3 -13 -2 -20 -10 -7 -8 -17 -12 -24 -8 -6
4 -4 -2 4 -12 14 -17 13 -18 -2 -12 -19 7 -61 -25 -50 -39 4 -5 3 -6 -2 -2 -5
4 -23 -4 -41 -17 -17 -14 -37 -25 -43 -25 -7 0 -12 -4 -12 -10 0 -5 -7 -10
-16 -10 -8 0 -13 -4 -9 -9 3 -5 -3 -12 -12 -15 -10 -3 -30 -17 -45 -31 -16
-14 -28 -22 -28 -18 0 4 -4 3 -8 -2 -16 -23 -65 -54 -76 -48 -6 3 -8 3 -4 -2
8 -8 -1 -18 -74 -77 -23 -18 -47 -39 -55 -46 -7 -7 -17 -10 -23 -7 -6 4 -9 2
-8 -3 4 -14 -91 -84 -104 -76 -7 4 -8 3 -4 -4 4 -7 -3 -17 -18 -24 -14 -6 -26
-14 -26 -18 0 -4 -18 -19 -40 -34 -22 -14 -40 -23 -40 -19 0 4 -7 -3 -16 -15
-8 -12 -21 -22 -28 -22 -8 0 -16 -7 -20 -15 -3 -8 -12 -15 -21 -15 -8 0 -15
-5 -15 -11 0 -6 -9 -9 -20 -6 -11 3 -18 2 -15 -3 7 -12 -44 -42 -57 -34 -6 4
-8 3 -5 -3 4 -5 -5 -16 -18 -23 -14 -7 -25 -20 -26 -29 0 -11 -2 -12 -6 -3 -4
9 -9 8 -21 -6 -28 -31 -71 -55 -88 -48 -14 5 -15 4 -5 -8 11 -13 8 -16 -13
-22 -14 -3 -23 -10 -20 -15 3 -5 -2 -9 -10 -9 -9 0 -16 -4 -16 -8 0 -12 -56
-42 -65 -34 -5 4 -5 2 -2 -4 7 -11 -19 -29 -36 -25 -5 1 -6 -3 -2 -9 3 -5 -1
-13 -9 -16 -9 -3 -13 -10 -10 -15 3 -5 -1 -6 -8 -4 -8 3 -24 -4 -36 -15 -12
-11 -22 -17 -22 -13 -1 4 -7 -3 -14 -16 -12 -21 -14 -22 -20 -6 -4 10 -2 23 4
29 5 5 10 21 10 34 0 13 4 21 9 18 5 -4 7 3 4 14 -3 12 0 20 6 20 7 0 10 4 7
9 -5 8 7 53 26 96 4 11 10 29 12 41 2 11 11 37 20 58 9 21 13 42 10 47 -3 5 3
9 13 10 10 0 13 3 7 5 -9 4 -9 13 0 37 6 18 15 35 19 38 4 3 -4 11 -17 17 -22
10 -24 9 -19 -5 5 -13 2 -15 -12 -9 -11 4 -17 4 -13 1 3 -4 -1 -15 -10 -24
-13 -13 -21 -15 -31 -7 -10 8 -13 8 -8 0 3 -6 -3 -17 -15 -25 -11 -8 -27 -20
-34 -27 -8 -7 -14 -10 -14 -6 0 4 -6 0 -13 -11 -9 -11 -19 -15 -27 -10 -9 5
-11 4 -6 -3 4 -7 1 -12 -9 -12 -9 0 -14 -4 -10 -9 3 -5 -5 -13 -17 -17 -12 -3
-33 -17 -47 -30 -14 -13 -28 -24 -32 -24 -3 0 -5 -13 -4 -30 1 -16 -2 -27 -7
-24 -4 3 -9 0 -9 -5 -1 -6 -3 -15 -4 -21 -1 -5 -3 -17 -4 -26 0 -8 -5 -12 -11
-9 -6 4 -7 -1 -3 -11 3 -10 2 -15 -3 -12 -5 4 -10 -7 -11 -23 -3 -48 -6 -59
-15 -59 -5 0 -7 -4 -4 -8 3 -5 -1 -21 -9 -36 -8 -15 -16 -43 -18 -63 -2 -19
-9 -38 -16 -43 -7 -4 -12 -11 -12 -16 2 -20 -12 -74 -18 -74 -4 0 -8 -6 -9
-12 -2 -31 -14 -73 -24 -85 -6 -7 -8 -13 -5 -13 3 0 -1 -17 -9 -37 -9 -20 -18
-46 -20 -57 -2 -12 -9 -23 -14 -24 -7 -3 -6 -10 2 -20 10 -12 10 -14 1 -8 -9
5 -13 0 -13 -18 0 -14 -5 -28 -11 -31 -6 -4 -8 -13 -5 -21 3 -7 1 -16 -5 -19
-5 -4 -7 -10 -4 -14 2 -5 -2 -16 -9 -27 -8 -10 -12 -24 -9 -31 3 -7 1 -13 -4
-13 -5 0 -9 -10 -10 -21 -2 -21 -2 -21 23 1 13 13 24 20 24 16 0 -3 12 6 28
21 32 33 82 67 82 56 0 -5 5 0 11 10 5 9 17 17 25 17 8 0 13 4 9 9 -3 5 4 12
15 16 11 3 20 11 20 16 0 6 4 8 9 5 5 -3 12 1 15 9 3 8 11 14 18 13 7 -2 12 3
10 10 -1 6 6 12 16 12 10 0 28 12 41 26 17 20 25 23 36 14 11 -9 12 -7 8 11
-4 14 -2 20 4 16 6 -4 14 0 17 9 3 8 10 13 15 10 5 -3 12 1 15 10 3 8 10 12
16 9 9 -6 14 8 11 28 -1 4 8 3 20 -4 12 -6 19 -7 15 -1 -6 10 55 62 74 62 6 0
8 5 5 10 -3 6 3 10 13 10 11 0 22 7 26 15 3 8 10 15 16 15 5 0 19 8 30 18 11
9 29 25 40 35 11 9 20 14 20 10 0 -5 5 0 11 10 5 9 16 17 23 17 8 0 17 7 20
16 4 10 12 14 23 10 10 -4 14 -4 11 0 -11 10 50 56 63 48 7 -4 9 -3 6 3 -4 6
0 16 8 23 8 7 15 9 15 4 0 -5 5 -1 11 8 5 10 16 15 24 11 11 -4 13 -1 8 13 -4
11 -3 15 4 11 6 -4 18 2 28 13 10 11 24 20 32 20 8 0 12 4 9 9 -3 5 6 12 19
15 14 4 23 11 20 16 -3 5 5 12 17 16 13 4 28 14 35 23 7 9 13 12 13 7 0 -5 11
3 25 18 13 14 28 26 33 26 5 0 15 7 22 15 7 9 19 14 27 11 8 -3 12 -2 9 3 -6
9 45 57 57 53 5 -1 11 7 14 18 3 11 9 20 14 20 5 0 20 9 33 21 13 12 27 21 30
20 3 -1 23 15 43 34 20 19 43 35 50 35 7 0 13 5 13 11 0 7 10 9 24 7 16 -3 23
-1 20 7 -6 15 23 28 38 18 6 -3 8 -1 5 4 -4 6 0 16 8 23 8 7 15 9 15 4 0 -5 5
-1 11 9 6 9 14 15 20 12 5 -4 9 -2 9 4 0 5 25 26 55 46 30 21 55 41 55 46 0 5
8 9 18 9 9 0 23 9 30 21 8 12 19 18 27 15 8 -3 14 -1 12 5 -1 6 13 19 30 28
18 10 30 20 28 23 -3 3 7 11 22 19 16 8 39 24 53 36 14 12 30 23 35 24 6 1 20
12 33 26 12 13 22 21 22 18 0 -6 15 5 76 55 7 5 15 6 18 3 6 -6 10 13 7 31 -1
5 4 5 11 -1 9 -8 16 -7 25 2 6 7 9 16 6 19 -4 3 4 6 16 6 12 0 20 4 17 9 -14
22 28 19 58 -4 18 -14 36 -22 41 -17 5 4 5 1 1 -5 -4 -8 -1 -13 9 -13 9 0 13
-4 10 -10 -3 -5 -1 -10 5 -10 11 0 62 -33 88 -57 10 -10 18 -9 37 3 14 9 22
21 18 28 -4 8 -3 8 6 0 10 -9 19 -5 40 17 16 16 31 26 34 22 4 -3 7 -1 7 5 0
6 9 14 20 17 11 4 17 11 14 17 -4 6 -2 8 4 4 6 -3 13 -2 17 4 3 5 15 10 26 10
19 0 19 1 -3 24 -13 13 -27 21 -32 18 -5 -3 -6 2 -3 12 4 10 3 15 -3 11 -12
-8 -49 12 -75 39 -11 12 -24 24 -30 26 -5 3 -9 9 -7 13 1 5 -2 6 -6 3 -5 -3
-22 5 -38 19 -15 13 -31 22 -36 19 -4 -3 -8 2 -8 10 0 14 -12 20 -32 17 -5 0
-8 6 -8 15 0 8 -4 13 -8 10 -5 -3 -15 4 -22 15 -8 10 -20 19 -28 19 -7 0 -11
4 -8 8 2 4 -5 9 -17 9 -11 1 -25 9 -29 18 -10 17 -28 20 -28 4z"/>
<path d="M5700 3423 c0 -7 -6 -13 -14 -13 -8 0 -16 -4 -18 -8 -1 -4 -20 -18
-41 -31 -28 -17 -36 -28 -33 -44 12 -56 15 -67 26 -86 8 -16 8 -21 -2 -21 -10
0 -10 -2 -1 -8 6 -4 13 -19 15 -32 2 -14 7 -31 12 -38 4 -8 9 -28 10 -46 1
-18 6 -37 10 -44 4 -6 8 -29 10 -50 1 -21 10 -53 19 -70 8 -18 11 -32 6 -32
-6 0 -3 -8 7 -17 10 -10 12 -19 6 -21 -13 -4 6 -52 21 -52 5 0 4 -7 -3 -15
-12 -14 -7 -20 14 -16 5 1 4 -5 -4 -13 -10 -13 -10 -16 1 -16 11 0 11 -2 -1
-10 -12 -8 -12 -10 -1 -10 8 0 12 -3 8 -6 -3 -4 0 -19 8 -34 11 -22 12 -30 2
-33 -6 -3 -2 -6 9 -6 12 -1 25 6 28 15 3 8 11 12 16 9 6 -4 9 -1 8 7 -2 7 3
12 10 10 6 -1 12 2 12 8 0 5 8 10 17 10 9 0 14 3 10 6 -3 3 -2 17 3 30 6 16 6
24 -1 24 -6 0 -9 8 -8 18 1 9 -1 26 -5 37 -15 38 -14 42 10 60 13 9 21 21 18
26 -3 5 1 6 9 3 9 -3 22 4 31 18 9 12 16 19 16 15 0 -4 11 0 25 9 14 9 22 20
19 25 -3 5 1 6 9 3 8 -3 18 0 22 5 3 6 12 8 18 5 7 -4 9 -4 5 0 -4 5 -2 14 5
21 12 13 35 5 64 -22 7 -6 22 -15 33 -18 11 -4 18 -11 15 -16 -4 -5 3 -9 13
-9 25 0 74 25 65 33 -3 4 1 7 10 7 10 0 17 5 17 10 0 6 7 10 15 10 13 0 13 3
3 20 -9 14 -14 16 -20 7 -5 -8 -8 -6 -8 7 0 13 -5 17 -20 13 -11 -3 -18 -1
-15 3 7 11 -24 42 -36 35 -5 -4 -9 -1 -9 4 0 6 -7 11 -15 11 -8 0 -15 5 -15
10 0 6 -4 10 -10 10 -5 0 -21 10 -36 23 -14 12 -28 21 -31 19 -2 -2 -12 6 -22
17 -9 11 -24 21 -32 23 -8 2 -21 11 -30 20 -8 9 -21 18 -29 20 -20 5 -50 31
-44 39 2 4 -4 6 -14 4 -10 -2 -25 5 -33 16 -7 10 -19 19 -26 19 -7 0 -13 5
-13 10 0 6 -7 10 -15 10 -8 0 -15 5 -15 11 0 5 -4 7 -10 4 -5 -3 -10 -1 -10 6
0 7 -3 10 -6 6 -9 -8 -33 16 -26 27 3 5 0 6 -6 2 -6 -3 -15 2 -21 11 -6 10
-11 12 -11 6z m85 -202 c-7 -12 24 -43 36 -36 5 4 9 -1 9 -9 0 -10 6 -13 15
-10 8 4 15 1 15 -5 0 -6 7 -11 15 -11 8 0 15 -4 15 -9 0 -5 8 -12 18 -15 9 -3
23 -15 29 -26 11 -16 10 -18 -1 -14 -8 3 -23 -5 -35 -17 -12 -13 -21 -19 -21
-13 0 5 -5 1 -11 -8 -5 -10 -16 -18 -24 -18 -7 0 -15 -5 -17 -12 -3 -7 -12 -9
-22 -5 -14 6 -16 10 -7 21 8 9 8 15 2 18 -6 1 -13 23 -16 48 -3 24 -11 48 -18
52 -9 6 -9 8 1 8 9 0 8 6 -3 24 -15 23 -15 25 2 35 23 13 26 13 18 2z"/>
<path d="M6719 3230 c-13 -11 -29 -24 -35 -28 -5 -5 -21 -15 -34 -22 -13 -7
-33 -21 -44 -31 -19 -18 -31 -23 -50 -20 -5 1 -6 -5 -3 -14 4 -8 1 -15 -4 -15
-7 0 -4 -11 5 -25 9 -14 16 -31 14 -38 -1 -6 4 -23 11 -35 7 -13 10 -26 7 -30
-3 -3 1 -16 9 -28 8 -13 17 -37 18 -53 2 -16 12 -41 21 -56 10 -15 14 -25 9
-22 -5 4 -10 0 -10 -8 0 -8 4 -12 8 -10 4 3 12 -18 19 -45 7 -28 16 -50 20
-50 4 0 7 -6 7 -12 -1 -13 17 -81 35 -130 6 -17 15 -25 22 -21 7 4 7 1 -1 -8
-10 -12 -10 -18 -1 -27 7 -7 8 -12 4 -12 -5 0 -1 -11 8 -24 12 -18 12 -26 3
-29 -7 -3 -5 -6 5 -6 11 -1 15 -6 12 -16 -4 -8 1 -26 10 -39 11 -18 12 -25 3
-29 -18 -6 -37 3 -37 19 0 8 -6 11 -17 7 -11 -4 -14 -3 -9 5 4 7 1 12 -9 12
-9 0 -13 5 -10 10 4 6 3 9 -2 8 -15 -5 -73 36 -74 52 0 9 -2 10 -5 3 -5 -11
-27 3 -76 50 -10 9 -22 17 -28 17 -5 0 -10 5 -10 10 0 6 -6 10 -13 10 -7 0
-20 8 -29 18 -24 25 -48 44 -48 37 0 -3 -10 3 -22 15 -12 11 -25 20 -30 20
-13 0 -47 38 -40 45 4 4 3 6 -3 5 -23 -5 -46 1 -40 10 3 6 0 10 -7 10 -8 0
-21 8 -30 18 -26 27 -52 47 -56 43 -2 -1 -14 6 -26 16 -23 20 -56 26 -56 11 0
-6 -5 -8 -12 -6 -7 3 -22 -6 -35 -20 -12 -13 -27 -21 -33 -17 -6 3 -9 1 -8 -5
2 -7 -12 -20 -29 -29 -18 -10 -30 -21 -26 -25 6 -5 -20 -10 -39 -7 -12 1 4
-30 27 -55 12 -13 30 -24 39 -24 9 0 16 -7 16 -15 0 -8 7 -15 15 -15 8 0 25
-10 38 -22 32 -32 67 -54 79 -50 5 1 7 -2 3 -8 -3 -5 -2 -10 3 -10 4 0 18 -9
29 -20 12 -11 27 -21 34 -22 7 -2 24 -15 38 -29 14 -14 34 -28 44 -32 9 -3 17
-14 17 -24 0 -12 3 -14 11 -6 8 8 16 7 28 -5 41 -39 70 -60 75 -55 3 4 6 -1 6
-10 0 -10 8 -17 20 -17 12 0 20 -7 20 -17 0 -9 3 -13 7 -10 3 4 15 0 25 -10
10 -9 18 -13 18 -10 0 4 8 -1 18 -10 11 -10 17 -21 15 -25 -2 -4 4 -5 13 -1
12 4 15 3 10 -5 -4 -8 0 -12 11 -12 10 0 25 -9 33 -20 8 -11 19 -20 25 -20 5
0 24 -14 42 -30 18 -17 36 -30 40 -30 4 0 22 -13 39 -30 18 -16 35 -26 38 -23
3 4 6 0 6 -7 0 -7 3 -11 6 -7 8 8 54 -34 48 -44 -3 -5 2 -6 10 -3 10 4 16 1
16 -7 0 -7 3 -10 6 -6 3 3 20 -7 38 -23 17 -17 37 -30 45 -30 9 0 11 -7 8 -21
-4 -16 -3 -18 8 -9 10 9 18 7 34 -7 23 -21 40 -34 67 -50 10 -6 18 -16 16 -23
-1 -6 2 -9 6 -6 5 3 22 -6 38 -19 16 -14 33 -25 37 -25 5 0 5 -6 1 -12 -5 -8
0 -7 11 2 11 9 16 10 11 3 -4 -8 2 -17 18 -25 28 -12 50 -3 27 11 -11 7 -11
10 0 14 9 3 7 6 -6 6 -17 1 -17 3 -5 11 10 7 11 10 2 10 -8 0 -11 9 -8 25 3
14 1 23 -5 20 -5 -4 -9 -3 -10 2 -3 33 -12 59 -25 74 -11 12 -12 19 -4 24 7 4
8 10 3 14 -13 9 -43 92 -37 102 3 5 0 9 -6 9 -7 0 -9 7 -6 15 3 9 -1 18 -9 21
-8 4 -13 10 -10 15 7 11 -5 60 -14 55 -4 -3 -7 3 -8 12 -1 9 -5 31 -8 47 -4
17 -7 38 -8 47 -1 9 -3 15 -6 13 -11 -11 -27 42 -19 63 4 13 4 21 -1 18 -10
-7 -33 49 -24 58 4 3 2 6 -4 6 -6 0 -14 17 -18 38 -4 20 -13 51 -21 67 -7 17
-15 41 -16 55 -2 14 -5 27 -8 30 -12 12 -31 52 -22 46 6 -3 2 15 -8 41 -30 77
-35 93 -44 131 -3 13 -12 36 -20 53 -8 16 -10 26 -4 23 5 -4 3 5 -6 18 -9 14
-13 28 -9 31 3 4 1 7 -5 7 -6 0 -9 6 -6 14 3 7 -2 20 -10 28 -11 11 -12 18 -3
27 8 8 8 11 -2 11 -7 0 -9 5 -6 10 3 6 1 10 -5 10 -7 0 -10 7 -6 15 3 8 1 15
-4 15 -6 0 -10 6 -10 13 0 32 -22 87 -32 81 -7 -4 -8 -3 -4 4 8 14 -11 92 -23
92 -4 0 -19 -9 -32 -20z"/>
<path d="M5350 3172 c0 -7 -4 -11 -8 -8 -5 3 -18 -4 -30 -14 -12 -11 -26 -20
-32 -20 -5 0 -10 -4 -10 -8 0 -5 -12 -15 -27 -23 -16 -8 -35 -22 -44 -31 -9
-10 -19 -15 -23 -11 -3 3 -6 1 -6 -6 0 -7 -4 -10 -9 -7 -5 4 -11 3 -13 -1 -6
-16 -70 -63 -77 -58 -18 11 -4 -36 19 -62 13 -15 23 -29 22 -31 -4 -5 23 -27
35 -29 7 -2 10 3 7 11 -3 9 4 16 21 20 14 4 23 11 20 16 -3 6 1 7 9 4 9 -3 16
-1 16 5 0 6 7 8 15 5 12 -5 13 -9 4 -21 -7 -8 -8 -13 -3 -12 20 3 35 -1 30
-10 -3 -5 1 -14 9 -21 8 -7 15 -19 15 -26 0 -8 5 -14 11 -14 6 0 8 -7 5 -16
-3 -8 -2 -13 3 -10 12 8 34 -21 26 -34 -4 -6 -3 -10 2 -9 19 3 34 -2 28 -10
-3 -5 2 -16 10 -24 8 -9 15 -20 15 -25 0 -5 14 -23 30 -40 17 -18 30 -36 30
-42 0 -5 5 -10 11 -10 6 0 9 -7 5 -15 -3 -9 0 -15 9 -15 8 0 15 -6 15 -14 0
-7 7 -19 15 -26 9 -7 14 -19 11 -26 -7 -18 47 -7 57 12 5 8 12 12 18 9 5 -4 9
2 9 11 0 10 3 14 6 11 4 -3 16 -1 27 5 21 11 21 11 -2 29 -14 12 -18 19 -10
19 9 1 8 4 -4 11 -9 5 -24 24 -33 42 -10 18 -25 39 -35 48 -11 9 -19 20 -19
25 0 5 -9 17 -20 27 -11 9 -20 26 -20 37 0 11 -6 19 -12 18 -8 -2 -13 6 -12
19 1 13 -2 20 -7 18 -4 -3 -18 9 -30 27 -13 18 -27 35 -31 36 -4 2 -8 13 -8
23 0 11 -4 17 -10 14 -5 -3 -10 1 -10 9 0 9 -4 16 -9 16 -16 0 -21 30 -9 49 6
11 18 17 25 14 7 -3 13 0 13 6 0 6 7 11 16 11 8 0 12 5 9 10 -3 6 -2 10 4 10
5 0 9 9 8 19 0 11 -6 19 -12 18 -5 -1 -9 3 -9 8 1 6 -11 24 -27 40 -16 17 -29
24 -29 17z"/>
<path d="M5014 2942 c4 -7 1 -12 -7 -12 -8 0 -20 -7 -27 -15 -7 -9 -15 -13
-17 -11 -3 3 -16 -7 -29 -21 -13 -14 -27 -23 -30 -20 -3 3 -19 -8 -36 -25 -16
-16 -32 -27 -35 -24 -3 3 -17 -7 -31 -22 -14 -15 -27 -25 -29 -22 -1 3 -11 -3
-22 -12 -11 -9 -22 -14 -24 -11 -5 4 -2 -23 3 -37 1 -3 2 -9 1 -13 -1 -5 3 -6
9 -2 5 3 10 0 10 -7 0 -8 9 -20 20 -28 15 -11 17 -17 7 -29 -9 -12 -9 -13 1
-7 6 4 12 2 12 -3 0 -6 7 -11 16 -11 14 0 15 -2 3 -17 -8 -9 -9 -14 -3 -10 12
7 38 -16 28 -26 -3 -3 4 -8 15 -12 12 -4 18 -12 14 -21 -3 -8 1 -14 10 -14 11
0 15 -7 12 -20 -2 -12 0 -18 6 -14 6 3 13 -3 16 -15 3 -12 9 -21 14 -21 5 0 9
-7 9 -15 0 -8 3 -15 8 -15 4 0 13 -9 20 -21 11 -17 11 -24 0 -37 -11 -15 -11
-15 3 -5 12 10 18 9 32 -7 9 -11 14 -20 10 -20 -4 0 1 -6 12 -13 12 -9 15 -19
10 -28 -5 -8 -5 -11 0 -7 4 4 21 -12 38 -35 40 -56 46 -59 71 -33 12 12 29 25
39 29 9 3 17 12 17 18 0 6 9 9 20 6 12 -3 18 -1 14 5 -5 7 3 9 20 6 20 -4 24
-2 16 7 -12 14 2 29 38 40 16 5 20 10 13 18 -6 9 -2 12 15 13 32 2 76 48 61
63 -6 6 -7 11 -3 11 4 0 -6 14 -24 30 -18 17 -28 30 -24 30 4 0 2 6 -4 12 -9
9 -15 9 -20 2 -4 -5 -24 -20 -45 -33 -20 -12 -35 -27 -31 -32 3 -5 2 -9 -3 -8
-19 3 -31 -2 -59 -26 -16 -14 -32 -25 -35 -25 -10 0 -47 48 -42 54 4 3 -2 6
-12 6 -15 0 -16 2 -4 17 8 9 10 14 4 11 -5 -3 -16 0 -23 8 -7 8 -9 14 -5 14 4
0 2 4 -5 9 -11 7 -9 13 9 30 12 11 27 21 32 21 4 0 14 6 21 13 30 28 63 53 89
66 28 15 36 31 15 31 -6 0 -9 3 -6 6 3 3 -5 17 -18 31 -13 14 -24 35 -24 46 0
16 -3 17 -15 7 -8 -7 -15 -9 -15 -4 0 5 -5 1 -11 -9 -6 -9 -14 -15 -20 -12 -8
6 -13 -8 -10 -28 1 -4 -9 -3 -21 4 -13 6 -20 8 -16 4 8 -8 -3 -19 -49 -52 -40
-29 -47 -29 -75 0 -29 29 -34 62 -14 83 12 12 16 12 16 2 0 -8 4 -7 11 5 5 9
17 17 24 17 8 0 15 4 15 9 0 5 9 13 20 16 11 4 17 11 14 17 -5 7 -2 9 8 6 8
-4 20 2 27 13 6 11 16 17 21 14 19 -11 10 22 -10 40 -11 10 -20 24 -20 32 0 7
-4 13 -10 13 -5 0 -10 6 -10 14 0 8 -5 18 -12 22 -7 4 -8 3 -4 -4z"/>
<path d="M3355 2830 c-3 -5 -1 -10 4 -10 6 0 11 5 11 10 0 6 -2 10 -4 10 -3 0
-8 -4 -11 -10z"/>
<path d="M4494 2538 c-4 -5 -11 -7 -18 -5 -6 3 -20 -1 -31 -9 -10 -8 -27 -14
-38 -14 -12 0 -17 -5 -14 -14 3 -7 0 -13 -6 -13 -32 1 -48 -4 -42 -12 5 -9
-32 -27 -47 -23 -5 1 -8 -5 -8 -14 0 -8 -4 -13 -9 -9 -6 3 -13 -1 -18 -9 -8
-14 -12 -16 -34 -16 -5 0 -8 -4 -5 -9 6 -9 -22 -26 -38 -22 -5 1 -4 -4 2 -12
7 -8 8 -18 4 -22 -4 -5 -1 -5 6 -1 8 5 16 -3 23 -23 6 -17 15 -28 20 -25 5 3
9 -2 9 -11 0 -10 5 -13 12 -9 6 4 8 3 4 -4 -3 -6 1 -18 10 -26 8 -9 30 -41 48
-71 19 -30 36 -52 40 -48 3 3 6 -1 6 -10 0 -9 5 -17 11 -17 5 0 7 -4 4 -10 -3
-5 -1 -10 5 -10 6 0 8 -4 5 -10 -3 -5 1 -10 9 -10 9 0 18 -11 22 -25 3 -14 10
-22 15 -19 8 5 11 -3 8 -22 0 -4 3 -10 8 -13 4 -3 13 -15 20 -26 6 -11 16 -19
22 -17 6 1 10 -1 10 -5 -3 -20 2 -34 11 -28 5 3 7 0 4 -8 -3 -9 4 -22 18 -31
12 -9 19 -16 15 -16 -5 0 -1 -7 8 -16 14 -15 17 -14 36 10 11 14 26 26 33 26
7 0 23 11 36 25 13 14 30 23 38 20 7 -2 10 0 7 5 -4 6 7 16 24 23 17 7 28 16
25 20 -4 3 6 9 20 13 18 4 25 11 22 21 -3 8 -2 12 3 9 11 -7 44 30 37 42 -3 6
0 12 8 15 25 10 43 150 23 176 -9 12 -9 13 1 7 16 -10 15 -2 -6 36 -10 18 -17
39 -15 46 3 6 0 12 -7 12 -6 0 -8 5 -5 10 3 6 1 10 -6 10 -7 0 -10 3 -6 6 3 3
-5 18 -19 32 -13 15 -24 30 -24 35 0 4 -4 5 -10 2 -5 -3 -10 3 -10 15 0 12 -4
19 -8 16 -5 -3 -15 4 -22 15 -8 10 -23 19 -33 19 -10 0 -15 5 -12 10 3 6 -3
10 -14 10 -12 0 -21 5 -21 11 0 5 -5 7 -10 4 -6 -4 -17 -1 -25 5 -8 6 -19 9
-25 5 -5 -3 -10 -2 -10 4 0 6 -11 6 -30 1 -16 -5 -30 -5 -30 -1 0 11 -30 10
-36 -1z m69 -131 c4 3 13 0 22 -7 12 -10 15 -10 15 1 0 9 3 10 8 3 4 -6 17
-16 30 -23 12 -7 20 -16 17 -22 -4 -5 -3 -9 2 -8 22 4 32 -3 43 -31 7 -16 15
-30 19 -30 15 0 29 -64 28 -122 -2 -46 -5 -62 -15 -60 -8 1 -11 -2 -8 -7 4 -5
1 -15 -6 -21 -46 -38 -62 -50 -70 -50 -5 0 -7 -4 -4 -8 3 -5 0 -9 -7 -9 -7 0
-18 -2 -25 -4 -8 -2 -19 5 -25 16 -7 11 -18 24 -24 28 -7 4 -13 13 -13 19 0 6
-9 19 -21 29 -11 9 -20 21 -20 26 0 4 -9 18 -20 31 -11 13 -25 34 -31 47 -6
14 -14 22 -18 20 -4 -2 -13 11 -20 30 -8 19 -20 35 -29 35 -8 0 -11 3 -8 6 3
4 2 15 -4 26 -9 16 -7 20 10 25 12 3 21 9 21 13 0 8 52 34 64 31 4 -1 14 4 22
10 8 6 14 8 14 3 0 -4 5 -3 12 4 7 7 16 8 23 2 7 -5 15 -7 18 -3z"/>
</g>
</svg>
