<svg width="32" height="17" viewBox="0 0 32 17" fill="none" xmlns="http://www.w3.org/2000/svg">
<path d="M2.69802 0.451636C2.54535 0.307372 2.36577 0.194591 2.16952 0.11973C1.97327 0.0448689 1.76419 0.00939452 1.55423 0.015334C1.34427 0.0212734 1.13754 0.0685098 0.945832 0.154345C0.754127 0.240181 0.581206 0.362935 0.436942 0.515599C0.292678 0.668263 0.179896 0.847848 0.105035 1.0441C0.0301738 1.24035 -0.00529984 1.44942 0.000639628 1.65938C0.0065791 1.86934 0.0538151 2.07608 0.139651 2.26778C0.225486 2.45949 0.34824 2.63241 0.500904 2.77667L14.8925 16.3687C15.1894 16.6494 15.5824 16.8058 15.991 16.8058C16.3996 16.8058 16.7927 16.6494 17.0896 16.3687L31.4827 2.77667C31.6387 2.63336 31.7647 2.46048 31.8533 2.26807C31.942 2.07566 31.9915 1.86756 31.999 1.65585C32.0065 1.44414 31.9719 1.23305 31.8971 1.03484C31.8224 0.836621 31.709 0.655235 31.5636 0.501212C31.4181 0.34719 31.2435 0.223601 31.0499 0.137625C30.8563 0.05165 30.6475 0.00500158 30.4358 0.000389133C30.224 -0.00422331 30.0134 0.0332918 29.8162 0.110757C29.619 0.188222 29.4392 0.304092 29.2872 0.451636L15.991 13.0075L2.69802 0.451636Z" fill="white"/>
</svg>
