<svg width="70" height="70" viewBox="0 0 70 70" fill="none" xmlns="http://www.w3.org/2000/svg">
<path d="M67.2542 36.8475C68.7142 34.9618 69.5224 32.6514 69.5224 30.2476C69.5224 26.4337 67.3411 22.8237 63.8303 20.8106C62.9264 20.2924 61.8973 20.0197 60.8495 20.0207H40.0101L40.5316 9.58142C40.6532 7.05867 39.7407 4.66333 37.9679 2.83709C37.0979 1.93696 36.0483 1.22078 34.8839 0.732809C33.7195 0.244841 32.4651 -0.00454446 31.1982 6.26879e-05C26.6792 6.26879e-05 22.6817 2.973 21.4824 7.22855L14.0175 33.6452H2.7809C1.24271 33.6452 0 34.8599 0 36.3633V67.2819C0 68.7853 1.24271 70 2.7809 70H55.0357C55.8352 70 56.6173 69.8471 57.3386 69.5413C61.4752 67.817 64.1431 63.8673 64.1431 59.4843C64.1431 58.414 63.9867 57.3608 63.6738 56.3415C65.1338 54.4558 65.942 52.1454 65.942 49.7416C65.942 48.6713 65.7856 47.618 65.4727 46.5987C66.9327 44.713 67.7409 42.4026 67.7409 39.9988C67.7235 38.9286 67.5671 37.8668 67.2542 36.8475ZM6.25702 63.8842V39.761H13.2962V63.8842H6.25702ZM61.5621 33.9L59.6589 35.5139L60.8669 37.6714C61.2648 38.3821 61.4712 39.1801 61.4665 39.9903C61.4665 41.3918 60.8408 42.7254 59.7632 43.6428L57.86 45.2567L59.068 47.4142C59.4659 48.1249 59.6723 48.9229 59.6676 49.7331C59.6676 51.1346 59.0419 52.4682 57.9643 53.3855L56.0611 54.9994L57.2691 57.1569C57.667 57.8676 57.8734 58.6656 57.8687 59.4758C57.8687 61.3785 56.7216 63.0943 54.9488 63.8758H18.858V39.4892L27.5048 8.86791C27.7278 8.08306 28.2064 7.39063 28.8682 6.89555C29.5299 6.40047 30.3388 6.12971 31.1721 6.12431C31.8326 6.12431 32.4843 6.31118 33.0058 6.69342C33.8661 7.32198 34.3267 8.27332 34.2745 9.28412L33.4403 26.1364H60.7626C62.3095 27.0623 63.2654 28.6252 63.2654 30.2476C63.2654 31.6491 62.6397 32.9742 61.5621 33.9Z" fill="#D19D34"/>
</svg>
