<svg width="94" height="70" viewBox="0 0 94 70" fill="none" xmlns="http://www.w3.org/2000/svg">
<path d="M65.3331 60.6667V70H0V60.6667C0 60.6667 0 42.0001 32.6666 42.0001C65.3331 42.0001 65.3331 60.6667 65.3331 60.6667ZM48.9998 16.3335C48.9998 13.1031 48.0419 9.94523 46.2472 7.25924C44.4525 4.57325 41.9015 2.47977 38.917 1.24354C35.9325 0.00731575 32.6484 -0.316138 29.4801 0.314085C26.3117 0.944308 23.4014 2.4999 21.1172 4.78415C18.8329 7.0684 17.2773 9.97871 16.6471 13.1471C16.0169 16.3154 16.3403 19.5995 17.5766 22.584C18.8128 25.5685 20.9063 28.1194 23.5923 29.9141C26.2783 31.7089 29.4361 32.6668 32.6666 32.6668C36.9984 32.6668 41.1528 30.946 44.2159 27.8829C47.279 24.8198 48.9998 20.6654 48.9998 16.3335ZM65.0531 42.0001C67.9219 44.2202 70.2694 47.0421 71.9302 50.2671C73.5911 53.4921 74.5251 57.0419 74.6664 60.6667V70H93.333V60.6667C93.333 60.6667 93.333 43.7268 65.0531 42.0001ZM60.6665 0.000245368C57.4543 -0.0176406 54.3129 0.942702 51.6598 2.75357C54.4945 6.71433 56.0187 11.4629 56.0187 16.3335C56.0187 21.2042 54.4945 25.9527 51.6598 29.9135C54.3129 31.7243 57.4543 32.6847 60.6665 32.6668C64.9983 32.6668 69.1527 30.946 72.2158 27.8829C75.2789 24.8198 76.9997 20.6654 76.9997 16.3335C76.9997 12.0017 75.2789 7.84724 72.2158 4.78415C69.1527 1.72107 64.9983 0.000245368 60.6665 0.000245368Z" fill="#f1aa34"/>
</svg>
