<svg width="26" height="22" viewBox="0 0 26 22" fill="none" xmlns="http://www.w3.org/2000/svg">
<path d="M11.3219 5.24003L7.3722 1.33503C6.91687 0.88503 6.08209 0.88703 5.55321 1.34103L2.30519 4.12803C1.33849 4.95703 1.06179 6.18803 1.62103 7.17503C4.962 13.1 10.5409 17.8851 17.4537 20.755C18.6048 21.234 20.0409 20.997 21.0076 20.168L24.286 17.355C24.8172 16.9 24.8183 16.181 24.2883 15.791L19.7116 12.426C19.233 12.074 18.4893 12.12 18.0094 12.532L16.4169 13.898C16.3354 13.9712 16.2281 14.0195 16.1114 14.0354C15.9948 14.0513 15.8753 14.0339 15.7713 13.986C13.1682 12.7021 11.009 10.8503 9.51341 8.61903C9.4574 8.52978 9.43712 8.42726 9.45568 8.32719C9.47424 8.22711 9.53061 8.13502 9.61616 8.06503L11.204 6.70403C11.685 6.29003 11.7375 5.65003 11.3219 5.23903V5.24003Z" stroke="white" stroke-width="2" stroke-linecap="round" stroke-linejoin="round"/>
</svg>
