<svg width="88" height="70" viewBox="0 0 88 70" fill="none" xmlns="http://www.w3.org/2000/svg">
<path d="M7.95422 13.8873C7.43395 13.8814 6.9326 14.0822 6.56021 14.4456C6.18781 14.809 5.97478 15.3053 5.96786 15.8255V62.2602C5.96786 63.3277 6.85603 64.194 7.95422 64.194H79.551C80.0705 64.1999 80.5712 63.9997 80.9435 63.6372C81.3158 63.2748 81.5293 62.7797 81.5374 62.2602V15.8255C81.5304 15.3053 81.3174 14.809 80.945 14.4456C80.5726 14.0822 80.0713 13.8814 79.551 13.8873H7.95422ZM7.95422 8.08568H79.551C83.9437 8.08568 87.5052 11.5509 87.5052 15.8255V62.2602C87.5052 66.5348 83.9437 70 79.551 70H7.95422C3.56146 70.0044 0 66.5392 0 62.2645V15.8255C0 11.5509 3.56146 8.0813 7.95422 8.0813V8.08568ZM4.49777 32.2721C3.71756 32.2815 2.96554 31.9808 2.40687 31.436C1.84821 30.8913 1.52859 30.1471 1.51822 29.3669C1.51822 27.7656 2.85267 26.4661 4.50214 26.4661H24.1908C25.8359 26.4661 27.1704 27.7656 27.1704 29.3669C27.1652 29.7536 27.084 30.1355 26.9312 30.4908C26.7785 30.8461 26.5573 31.1678 26.2802 31.4376C26.0031 31.7074 25.6756 31.9199 25.3163 32.0631C24.9571 32.2063 24.5731 32.2773 24.1864 32.2721H4.49777ZM61.8531 32.2721C61.4664 32.2773 61.0824 32.2063 60.7232 32.0631C60.3639 31.9199 60.0364 31.7074 59.7593 31.4376C59.4823 31.1678 59.261 30.8461 59.1083 30.4908C58.9555 30.1355 58.8743 29.7536 58.8691 29.3669C58.8691 27.7656 60.2036 26.4661 61.8531 26.4661H83.62C85.2651 26.4661 86.6039 27.7656 86.6039 29.3669C86.5988 29.7536 86.5175 30.1355 86.3648 30.4908C86.212 30.8461 85.9908 31.1678 85.7137 31.4376C85.4366 31.7074 85.1091 31.9199 84.7498 32.0631C84.3906 32.2063 84.0067 32.2773 83.62 32.2721H61.8531ZM43.0394 60.7988C30.4081 60.7988 20.17 50.8363 20.17 38.5462C20.17 26.2518 30.4081 16.2937 43.0394 16.2937C55.6708 16.2937 65.9133 26.2561 65.9133 38.5462C65.9133 50.8363 55.6752 60.7988 43.0394 60.7988ZM43.0394 54.9928C52.3762 54.9928 59.9454 47.6293 59.9454 38.5419C59.9454 29.4632 52.3762 22.0953 43.0394 22.0953C33.707 22.0953 26.1378 29.4632 26.1378 38.5462C26.1378 47.6293 33.707 54.9928 43.0394 54.9928ZM29.9793 11.6953L24.729 8.93885C26.0065 6.63747 27.4548 4.6686 29.078 3.03225C30.0089 2.06582 31.1265 1.2987 32.363 0.777473C33.5995 0.25625 34.9291 -0.00819731 36.2709 0.0001936L64.1457 0.00894453C66.9062 0.180761 69.4981 1.39612 71.3955 3.40852C72.9487 5.04487 74.3182 6.86498 75.5082 8.8601L70.3542 11.774C69.4051 10.1766 68.2826 8.68873 67.0071 7.33751C66.2015 6.45645 65.0944 5.90994 63.9051 5.80616H36.2709C35.1552 5.80616 34.2452 6.19556 33.3701 7.07499C32.145 8.30881 31.0031 9.84453 29.9793 11.6953ZM10.9382 5.16738C10.9382 3.56166 12.2726 2.2622 13.9221 2.2622C15.5672 2.2622 16.906 3.56166 16.906 5.16738V10.0195C16.8945 10.7997 16.5738 11.5435 16.0143 12.0874C15.4548 12.6313 14.7023 12.9309 13.9221 12.9203C13.1419 12.9309 12.3894 12.6313 11.8299 12.0874C11.2704 11.5435 10.9497 10.7997 10.9382 10.0195V5.16738Z" fill="#D19D34"/>
</svg>
