<svg width="41" height="40" viewBox="0 0 41 40" fill="none" xmlns="http://www.w3.org/2000/svg">
<path d="M17.0724 22.9486L18.9531 21.8619L16.5142 19.8103L17.0724 22.9486Z" fill="#D19D34"/>
<path d="M40.3079 19.9791C40.3079 19.5165 40.0805 19.1098 39.7345 18.8548L39.7418 18.8422L34.8681 16.0285L37.6735 11.1695L37.6641 11.1638C37.7527 10.9635 37.7928 10.7452 37.7813 10.5265C37.7698 10.3078 37.7069 10.095 37.5977 9.90513C37.4877 9.71548 37.3345 9.55445 37.1506 9.43511C36.9667 9.31577 36.7572 9.24149 36.5392 9.2183V9.20471H30.9108V3.5925H30.8993C30.8759 3.37477 30.8015 3.16562 30.6822 2.982C30.5628 2.79838 30.4019 2.64545 30.2125 2.53561C30.0224 2.42609 29.809 2.36308 29.5899 2.35173C29.3708 2.34037 29.1521 2.38099 28.9517 2.47027L28.9449 2.45825L23.9892 5.3195L21.2451 0.566082L21.2351 0.571832C21.1059 0.395019 20.9369 0.251113 20.7418 0.151768C20.5466 0.0524227 20.3308 0.000430353 20.1119 0C19.6493 0 19.2421 0.227373 18.9875 0.573399L18.975 0.566082L16.1853 5.3979L11.3818 2.62447L11.376 2.6344C11.1757 2.54579 10.9574 2.50562 10.7387 2.51715C10.5201 2.52869 10.3072 2.5916 10.1173 2.70078C9.92757 2.81068 9.76641 2.96382 9.64698 3.14774C9.52754 3.33166 9.4532 3.54118 9.43 3.75925H9.41588V9.33853H3.86901V9.3495C3.65128 9.37293 3.44213 9.44731 3.25851 9.56664C3.07488 9.68597 2.92196 9.84688 2.81212 10.0363C2.70289 10.2263 2.64 10.4394 2.62855 10.6583C2.61711 10.8772 2.65744 11.0957 2.74626 11.296L2.73423 11.3033L5.47631 16.0531L0.566082 18.8882L0.571832 18.8982C0.395019 19.0273 0.251114 19.1964 0.151768 19.3915C0.0524232 19.5866 0.000430353 19.8025 0 20.0214C0 20.484 0.227374 20.8912 0.5734 21.1458L0.566082 21.1583L5.43972 23.972L2.6344 28.831L2.64381 28.8362C2.5552 29.0365 2.51503 29.2548 2.52656 29.4735C2.5381 29.6922 2.60101 29.905 2.71019 30.0949C2.82018 30.2845 2.97336 30.4456 3.15727 30.5649C3.34118 30.6842 3.55065 30.7585 3.76865 30.7817V30.7958H9.39655V36.4075H9.40804C9.45613 36.834 9.69501 37.2334 10.0949 37.4644C10.285 37.5738 10.4983 37.6367 10.7174 37.6481C10.9365 37.6594 11.1552 37.6189 11.3556 37.5297L11.3624 37.5417L16.3181 34.6805L19.0623 39.4339L19.0722 39.4282C19.2014 39.605 19.3704 39.7489 19.5656 39.8482C19.7607 39.9476 19.9765 39.9996 20.1955 40C20.6581 40 21.0653 39.7726 21.3198 39.4271L21.3318 39.4339L24.1215 34.6021L28.9256 37.3755L28.9313 37.3656C29.1316 37.4542 29.3499 37.4944 29.5686 37.4828C29.7873 37.4713 30.0002 37.4084 30.19 37.2992C30.3798 37.1894 30.541 37.0363 30.6605 36.8523C30.7799 36.6684 30.8542 36.4588 30.8773 36.2408H30.8915V30.662H36.4389V30.651C36.6566 30.6276 36.8657 30.5532 37.0494 30.4339C37.233 30.3146 37.3859 30.1536 37.4958 29.9642C37.605 29.7742 37.6679 29.5611 37.6793 29.3422C37.6908 29.1233 37.6504 28.9049 37.5616 28.7045L37.5736 28.6977L34.8316 23.9479L39.7418 21.1128L39.736 21.1029C39.9129 20.9736 40.0568 20.8045 40.1561 20.6093C40.2554 20.414 40.3074 20.1981 40.3079 19.9791ZM13.6393 27.9434C12.4737 28.6167 11.4168 28.7087 10.5183 28.4672L10.6442 27.0575C11.3248 27.2545 12.2045 27.2535 13.0356 26.7731C13.7501 26.3607 13.9022 25.8506 13.6989 25.4988C13.0931 24.4503 10.0442 27.1871 8.73376 24.9181C8.15461 23.9145 8.54193 22.5811 9.96211 21.7615C10.9202 21.208 11.883 21.0386 12.7983 21.2451L12.6368 22.6161C11.8877 22.4468 11.1167 22.614 10.5021 22.9684C9.95949 23.282 9.78752 23.6944 9.9966 24.0567C10.5449 25.0059 13.6372 22.3652 14.9366 24.6154C15.5738 25.7178 15.2586 27.0094 13.6393 27.9434ZM20.9273 23.5915L19.9582 22.7891L17.3724 24.2819L17.582 25.5228L16.1263 26.3628L14.9685 18.9912L16.5779 18.0624L22.383 22.7515L20.9273 23.5915ZM22.889 22.4593L19.4073 16.4284L20.7004 15.6815L23.5298 20.5818L26.0795 19.1098L26.7324 20.2404L22.889 22.4593ZM27.5995 19.7397L24.1178 13.7093L28.3851 11.2448L29.0375 12.3749L26.0544 14.0977L26.7851 15.3637L29.7049 13.6774L30.3573 14.8075L27.4375 16.4932L28.2309 17.8679L31.2145 16.1451L31.8673 17.2752L27.5995 19.7397Z" fill="#D19D34"/>
</svg>
