<svg width="56" height="70" viewBox="0 0 56 70" fill="none" xmlns="http://www.w3.org/2000/svg">
<path d="M28 70C19.8917 67.9583 13.1973 63.3057 7.917 56.042C2.63667 48.7783 -0.00233179 40.7143 1.54594e-06 31.85V10.5L28 0L56 10.5V31.85C56 40.7167 53.3598 48.7818 48.0795 56.0455C42.7992 63.3092 36.106 67.9607 28 70ZM28 62.65C34.0667 60.725 39.0833 56.875 43.05 51.1C47.0167 45.325 49 38.9083 49 31.85V15.3125L28 7.4375L7 15.3125V31.85C7 38.9083 8.98333 45.325 12.95 51.1C16.9167 56.875 21.9333 60.725 28 62.65Z" fill="#D19D34"/>
</svg>
