<svg width="42" height="70" viewBox="0 0 42 70" fill="none" xmlns="http://www.w3.org/2000/svg">
<path d="M2 41H0V42C0 42.2652 0.105357 42.5196 0.292893 42.7071C0.48043 42.8946 0.734784 43 1 43C1.26522 43 1.51957 42.8946 1.70711 42.7071C1.89464 42.5196 2 42.2652 2 42V41Z" fill="black"/>
<path fill-rule="evenodd" clip-rule="evenodd" d="M0 0V7H3.5V17.5C3.5 22.1413 5.34374 26.5925 8.62563 29.8744C11.9075 33.1563 16.3587 35 21 35C16.3587 35 11.9075 36.8437 8.62563 40.1256C5.34374 43.4075 3.5 47.8587 3.5 52.5V63H0V70H42V63H38.5V52.5C38.5 47.8587 36.6563 43.4075 33.3744 40.1256C30.0925 36.8437 25.6413 35 21 35C23.2981 35 25.5738 34.5474 27.697 33.6679C29.8202 32.7884 31.7493 31.4994 33.3744 29.8744C34.9994 28.2493 36.2884 26.3202 37.1679 24.197C38.0474 22.0738 38.5 19.7981 38.5 17.5V7H42V0H0ZM10.5 7H31.5V17.5C31.5 20.2848 30.3938 22.9555 28.4246 24.9246C26.4555 26.8938 23.7848 28 21 28C18.2152 28 15.5445 26.8938 13.5754 24.9246C11.6062 22.9555 10.5 20.2848 10.5 17.5V7ZM10.5 52.5V63H31.5V52.5C31.5 49.7152 30.3938 47.0445 28.4246 45.0754C26.4555 43.1062 23.7848 42 21 42C18.2152 42 15.5445 43.1062 13.5754 45.0754C11.6062 47.0445 10.5 49.7152 10.5 52.5Z" fill="#f1aa34"/>
</svg>
